<svg width="16" height="20" viewBox="0 0 16 20" fill="none" xmlns="http://www.w3.org/2000/svg">
<path d="M7.69791 0C3.45769 0 0 3.45769 0 7.69791C0 12.4659 5.91447 18.4895 7.37034 19.8544C7.46133 19.9454 7.58872 19.9818 7.69791 19.9818C7.8071 19.9818 7.93449 19.9454 8.02548 19.8544C9.49955 18.4895 15.3958 12.4659 15.3958 7.69791C15.414 3.45769 11.9563 0 7.69791 0ZM7.69791 2.49318C10.5732 2.49318 12.9208 4.82257 12.9208 7.69791C12.9208 10.2639 10.1183 14.0855 7.71611 16.6697C5.29572 14.0855 2.49318 10.2639 2.49318 7.69791C2.49318 4.82257 4.82257 2.49318 7.69791 2.49318Z" fill="#1C3D57"/>
<path d="M7.69791 5.78735C6.6424 5.78735 5.78708 6.64268 5.78708 7.69818C5.78708 8.75369 6.6424 9.60901 7.69791 9.60901C8.75341 9.60901 9.60873 8.75369 9.60873 7.69818C9.62693 6.66088 8.77161 5.78735 7.69791 5.78735Z" fill="#1C3D57"/>
</svg>
