<svg width="16" height="16" xmlns="http://www.w3.org/2000/svg">
 <g>
  <title>Layer 1</title>
  <path id="svg_1" d="m8,0c-4.355,0 -7.898,3.481 -7.998,7.812c0.092,-3.779 2.966,-6.812 6.498,-6.812c3.59,0 6.5,3.134 6.5,7c0,0.828 0.672,1.5 1.5,1.5s1.5,-0.672 1.5,-1.5c0,-4.418 -3.582,-8 -8,-8zm0,16c4.355,0 7.898,-3.481 7.998,-7.812c-0.092,3.779 -2.966001,6.812 -6.498,6.812c-3.59,0 -6.5,-3.134 -6.5,-7c0,-0.828 -0.672,-1.5 -1.5,-1.5s-1.5,0.672 -1.5,1.5c0,4.418 3.582,8 8,8z" fill="#787878"/>
 </g>
</svg>
