<?xml version="1.0" encoding="UTF-8" standalone="no"?>
<!-- Generated by IcoMoon.io -->

<svg
   xmlns:osb="http://www.openswatchbook.org/uri/2009/osb"
   xmlns:dc="http://purl.org/dc/elements/1.1/"
   xmlns:cc="http://creativecommons.org/ns#"
   xmlns:rdf="http://www.w3.org/1999/02/22-rdf-syntax-ns#"
   xmlns:svg="http://www.w3.org/2000/svg"
   xmlns="http://www.w3.org/2000/svg"
   xmlns:xlink="http://www.w3.org/1999/xlink"
   xmlns:sodipodi="http://sodipodi.sourceforge.net/DTD/sodipodi-0.dtd"
   xmlns:inkscape="http://www.inkscape.org/namespaces/inkscape"
   version="1.1"
   width="64"
   height="64"
   viewBox="0 0 64 64"
   id="svg2"
   inkscape:version="0.91 r13725"
   sodipodi:docname="earth2.svg">
  <metadata
     id="metadata10">
    <rdf:RDF>
      <cc:Work
         rdf:about="">
        <dc:format>image/svg+xml</dc:format>
        <dc:type
           rdf:resource="http://purl.org/dc/dcmitype/StillImage" />
        <dc:title />
      </cc:Work>
    </rdf:RDF>
  </metadata>
  <defs
     id="defs8">
    <linearGradient
       id="linearGradient5586"
       osb:paint="solid"
       gradientTransform="matrix(1.0786418e-4,0,0,1.0786418e-4,-0.6696952,-0.22323173)">
      <stop
         style="stop-color:#787878;stop-opacity:1;"
         offset="0"
         id="stop5588" />
    </linearGradient>
    <linearGradient
       inkscape:collect="always"
       xlink:href="#linearGradient5586"
       id="linearGradient5590"
       x1="0.034295321"
       y1="31.978305"
       x2="63.903742"
       y2="31.978305"
       gradientUnits="userSpaceOnUse" />
    <filter
       inkscape:collect="always"
       style="color-interpolation-filters:sRGB"
       id="filter5994"
       x="-1.2008747"
       width="3.4017493"
       y="-1.1991266"
       height="3.3982532">
      <feGaussianBlur
         inkscape:collect="always"
         stdDeviation="31.821303"
         id="feGaussianBlur5996" />
    </filter>
  </defs>
  <sodipodi:namedview
     pagecolor="#ffffff"
     bordercolor="#666666"
     borderopacity="1"
     objecttolerance="10"
     gridtolerance="10"
     guidetolerance="10"
     inkscape:pageopacity="0"
     inkscape:pageshadow="2"
     inkscape:window-width="1282"
     inkscape:window-height="1073"
     id="namedview6"
     showgrid="false"
     inkscape:zoom="3.6875"
     inkscape:cx="-7.5932203"
     inkscape:cy="32"
     inkscape:window-x="0"
     inkscape:window-y="0"
     inkscape:window-maximized="0"
     inkscape:current-layer="svg2" />
  <path
     d="M32 0c-17.673 0-32 14.327-32 32s14.327 32 32 32 32-14.327 32-32-14.327-32-32-32zM32 60c-3.935 0-7.68-0.813-11.077-2.278l14.572-16.393c0.325-0.366 0.505-0.839 0.505-1.329v-6c0-1.105-0.895-2-2-2-7.062 0-14.513-7.341-14.586-7.414-0.375-0.375-0.884-0.586-1.414-0.586h-8c-1.104 0-2 0.895-2 2v12c0 0.758 0.428 1.45 1.106 1.789l6.894 3.447v11.743c-7.253-5.060-12-13.465-12-22.979 0-4.295 0.968-8.363 2.696-12h7.304c0.53 0 1.039-0.211 1.414-0.586l8-8c0.375-0.375 0.586-0.884 0.586-1.414v-4.838c2.535-0.755 5.22-1.162 8-1.162 4.4 0 8.563 1.016 12.268 2.825-0.259 0.219-0.511 0.448-0.753 0.69-2.267 2.267-3.515 5.28-3.515 8.485s1.248 6.219 3.515 8.485c2.277 2.277 5.326 3.517 8.477 3.516 0.198 0 0.396-0.005 0.595-0.015 0.863 3.238 2.422 11.666-0.525 23.271-0.028 0.109-0.044 0.218-0.053 0.327-5.083 5.193-12.169 8.416-20.009 8.416z"
     fill="#000000"
     id="path4"
     style="fill:#787878;fill-opacity:1;opacity:1" />
  <path
     style="opacity:0;fill:#787878;fill-opacity:0;fill-rule:evenodd;stroke:#565656;stroke-width:0.27118644;stroke-opacity:0.3372549"
     d="M 26.521243,63.401592 C 22.301672,62.639596 17.526742,60.699881 14.030431,58.327463 12.042127,56.978302 8.2460588,53.369657 6.7039477,51.362712 -1.3348876,40.900754 -2.0170468,26.414979 4.9949776,15.072421 6.9391582,11.92754 11.368017,7.4320835 14.556275,5.3673473 25.550226,-1.7524054 38.94874,-1.6010876 50.086709,5.7686148 c 3.823854,2.5301453 8.32589,7.7232292 10.553877,12.1738682 4.183146,8.356267 4.165711,19.711307 -0.04319,28.132093 -3.028011,6.05817 -8.513788,11.532212 -14.648356,14.617025 -5.361724,2.696185 -13.340892,3.809202 -19.427798,2.709991 z m 12.36023,-4.13136 c 4.294362,-1.140816 8.987143,-3.669305 12.078467,-6.507924 1.114606,-1.023493 1.16019,-1.134506 1.835675,-4.470612 1.174999,-5.803116 1.340428,-13.315493 0.398121,-18.079221 -0.503629,-2.546021 -0.422983,-2.442983 -1.91209,-2.442983 -3.972537,0 -8.154571,-2.899886 -10.098047,-7.00214 -0.801649,-1.692105 -0.858175,-2.007907 -0.858175,-4.794471 0,-2.786563 0.05653,-3.102365 0.858175,-4.79447 0.471997,-0.996281 1.38033,-2.3778903 2.018519,-3.0702437 C 44.514921,6.6839436 44.527173,6.7095558 42.088136,5.7795249 38.485532,4.4058145 36.708355,4.0940347 32.325424,4.0667986 29.139873,4.047002 27.613115,4.1600746 26.020339,4.5337521 l -2.101695,0.4930739 0,2.8803916 0,2.8803914 -4.467086,4.490942 -4.467087,4.490941 -4.278676,0.135593 -4.2786764,0.135593 -1.0031522,2.983051 C 4.7637275,24.987066 4.3057391,27.011647 4.084176,28.9464 3.007078,38.351935 7.0452643,48.125551 14.389841,53.88918 l 1.664396,1.306128 0,-6.060913 0,-6.060914 -3.293205,-1.618097 C 10.94977,40.565432 9.1802785,39.614872 8.828829,39.343029 l -0.6389985,-0.494259 0,-6.806422 c 0,-5.952884 0.056282,-6.868611 0.4488103,-7.30235 0.4029128,-0.445214 0.9445351,-0.49593 5.2963012,-0.49593 l 4.847491,0 1.713143,1.453304 c 4.585404,3.88992 9.795784,6.411103 13.249446,6.411103 0.500025,0 1.109185,0.242993 1.478178,0.589643 0.596976,0.56083 0.627647,0.771631 0.627647,4.313592 l 0,3.723948 -7.38983,8.328762 c -4.064407,4.580819 -7.389831,8.455179 -7.389831,8.609684 0,0.362419 2.362387,1.186522 5.288136,1.84473 3.106148,0.698793 9.428355,0.573277 12.522151,-0.248602 z"
     id="path4138"
     inkscape:connector-curvature="0" />
  <path
     style="opacity:0;fill:url(#linearGradient5590);fill-opacity:1;fill-rule:evenodd;stroke:#565656;stroke-width:0.27118644;stroke-opacity:0.3372549"
     d="M 26.521243,63.401592 C 22.301672,62.639596 17.526742,60.699881 14.030431,58.327463 12.042127,56.978302 8.2460588,53.369657 6.7039477,51.362712 -1.3348876,40.900754 -2.0170468,26.414979 4.9949776,15.072421 6.9391582,11.92754 11.368017,7.4320835 14.556275,5.3673473 25.550226,-1.7524054 38.94874,-1.6010876 50.086709,5.7686148 c 3.823854,2.5301453 8.32589,7.7232292 10.553877,12.1738682 4.183146,8.356267 4.165711,19.711307 -0.04319,28.132093 -3.028011,6.05817 -8.513788,11.532212 -14.648356,14.617025 -5.361724,2.696185 -13.340892,3.809202 -19.427798,2.709991 z m 12.36023,-4.13136 c 4.294362,-1.140816 8.987143,-3.669305 12.078467,-6.507924 1.114606,-1.023493 1.16019,-1.134506 1.835675,-4.470612 1.174999,-5.803116 1.340428,-13.315493 0.398121,-18.079221 -0.503629,-2.546021 -0.422983,-2.442983 -1.91209,-2.442983 -3.972537,0 -8.154571,-2.899886 -10.098047,-7.00214 -0.801649,-1.692105 -0.858175,-2.007907 -0.858175,-4.794471 0,-2.786563 0.05653,-3.102365 0.858175,-4.79447 0.471997,-0.996281 1.38033,-2.3778903 2.018519,-3.0702437 C 44.514921,6.6839436 44.527173,6.7095558 42.088136,5.7795249 38.485532,4.4058145 36.708355,4.0940347 32.325424,4.0667986 29.139873,4.047002 27.613115,4.1600746 26.020339,4.5337521 l -2.101695,0.4930739 0,2.8803916 0,2.8803914 -4.467086,4.490942 -4.467087,4.490941 -4.278676,0.135593 -4.2786764,0.135593 -1.0031522,2.983051 C 4.7637275,24.987066 4.3057391,27.011647 4.084176,28.9464 3.007078,38.351935 7.0452643,48.125551 14.389841,53.88918 l 1.664396,1.306128 0,-6.060913 0,-6.060914 -3.293205,-1.618097 C 10.94977,40.565432 9.1802785,39.614872 8.828829,39.343029 l -0.6389985,-0.494259 0,-6.806422 c 0,-5.952884 0.056282,-6.868611 0.4488103,-7.30235 0.4029128,-0.445214 0.9445351,-0.49593 5.2963012,-0.49593 l 4.847491,0 1.713143,1.453304 c 4.585404,3.88992 9.795784,6.411103 13.249446,6.411103 0.500025,0 1.109185,0.242993 1.478178,0.589643 0.596976,0.56083 0.627647,0.771631 0.627647,4.313592 l 0,3.723948 -7.38983,8.328762 c -4.064407,4.580819 -7.389831,8.455179 -7.389831,8.609684 0,0.362419 2.362387,1.186522 5.288136,1.84473 3.106148,0.698793 9.428355,0.573277 12.522151,-0.248602 z"
     id="path4140"
     inkscape:connector-curvature="0" />
  <path
     style="opacity:0;fill:#787878;fill-opacity:0;fill-rule:evenodd;stroke:#565656;stroke-width:0.27118644;stroke-opacity:0.3372549;filter:url(#filter5994)"
     d="M 26.521243,63.401592 C 22.301672,62.639596 17.526742,60.699881 14.030431,58.327463 12.042127,56.978302 8.2460588,53.369657 6.7039477,51.362712 -1.3348876,40.900754 -2.0170468,26.414979 4.9949776,15.072421 6.9391582,11.92754 11.368017,7.4320835 14.556275,5.3673473 25.550226,-1.7524054 38.94874,-1.6010876 50.086709,5.7686148 c 3.823854,2.5301453 8.32589,7.7232292 10.553877,12.1738682 4.183146,8.356267 4.165711,19.711307 -0.04319,28.132093 -3.028011,6.05817 -8.513788,11.532212 -14.648356,14.617025 -5.361724,2.696185 -13.340892,3.809202 -19.427798,2.709991 z m 12.36023,-4.13136 c 4.294362,-1.140816 8.987143,-3.669305 12.078467,-6.507924 1.114606,-1.023493 1.16019,-1.134506 1.835675,-4.470612 1.174999,-5.803116 1.340428,-13.315493 0.398121,-18.079221 -0.503629,-2.546021 -0.422983,-2.442983 -1.91209,-2.442983 -3.972537,0 -8.154571,-2.899886 -10.098047,-7.00214 -0.801649,-1.692105 -0.858175,-2.007907 -0.858175,-4.794471 0,-2.786563 0.05653,-3.102365 0.858175,-4.79447 0.471997,-0.996281 1.38033,-2.3778903 2.018519,-3.0702437 C 44.514921,6.6839436 44.527173,6.7095558 42.088136,5.7795249 38.485532,4.4058145 36.708355,4.0940347 32.325424,4.0667986 29.139873,4.047002 27.613115,4.1600746 26.020339,4.5337521 l -2.101695,0.4930739 0,2.8803916 0,2.8803914 -4.467086,4.490942 -4.467087,4.490941 -4.278676,0.135593 -4.2786764,0.135593 -1.0031522,2.983051 C 4.7637275,24.987066 4.3057391,27.011647 4.084176,28.9464 3.007078,38.351935 7.0452643,48.125551 14.389841,53.88918 l 1.664396,1.306128 0,-6.060913 0,-6.060914 -3.293205,-1.618097 C 10.94977,40.565432 9.1802785,39.614872 8.828829,39.343029 l -0.6389985,-0.494259 0,-6.806422 c 0,-5.952884 0.056282,-6.868611 0.4488103,-7.30235 0.4029128,-0.445214 0.9445351,-0.49593 5.2963012,-0.49593 l 4.847491,0 1.713143,1.453304 c 4.585404,3.88992 9.795784,6.411103 13.249446,6.411103 0.500025,0 1.109185,0.242993 1.478178,0.589643 0.596976,0.56083 0.627647,0.771631 0.627647,4.313592 l 0,3.723948 -7.38983,8.328762 c -4.064407,4.580819 -7.389831,8.455179 -7.389831,8.609684 0,0.362419 2.362387,1.186522 5.288136,1.84473 3.106148,0.698793 9.428355,0.573277 12.522151,-0.248602 z"
     id="path5592"
     inkscape:connector-curvature="0" />
  <path
     style="opacity:0;fill:#787878;fill-opacity:0;fill-rule:evenodd;stroke:#565656;stroke-width:0.27118644;stroke-opacity:0.3372549"
     d="M 26.521243,63.401592 C 22.301672,62.639596 17.526742,60.699881 14.030431,58.327463 12.042127,56.978302 8.2460588,53.369657 6.7039477,51.362712 -1.3348876,40.900754 -2.0170468,26.414979 4.9949776,15.072421 6.9391582,11.92754 11.368017,7.4320835 14.556275,5.3673473 25.550226,-1.7524054 38.94874,-1.6010876 50.086709,5.7686148 c 3.823854,2.5301453 8.32589,7.7232292 10.553877,12.1738682 4.183146,8.356267 4.165711,19.711307 -0.04319,28.132093 -3.028011,6.05817 -8.513788,11.532212 -14.648356,14.617025 -5.361724,2.696185 -13.340892,3.809202 -19.427798,2.709991 z m 12.36023,-4.13136 c 4.294362,-1.140816 8.987143,-3.669305 12.078467,-6.507924 1.114606,-1.023493 1.16019,-1.134506 1.835675,-4.470612 1.174999,-5.803116 1.340428,-13.315493 0.398121,-18.079221 -0.503629,-2.546021 -0.422983,-2.442983 -1.91209,-2.442983 -3.972537,0 -8.154571,-2.899886 -10.098047,-7.00214 -0.801649,-1.692105 -0.858175,-2.007907 -0.858175,-4.794471 0,-2.786563 0.05653,-3.102365 0.858175,-4.79447 0.471997,-0.996281 1.38033,-2.3778903 2.018519,-3.0702437 C 44.514921,6.6839436 44.527173,6.7095558 42.088136,5.7795249 38.485532,4.4058145 36.708355,4.0940347 32.325424,4.0667986 29.139873,4.047002 27.613115,4.1600746 26.020339,4.5337521 l -2.101695,0.4930739 0,2.8803916 0,2.8803914 -4.467086,4.490942 -4.467087,4.490941 -4.278676,0.135593 -4.2786764,0.135593 -1.0031522,2.983051 C 4.7637275,24.987066 4.3057391,27.011647 4.084176,28.9464 3.007078,38.351935 7.0452643,48.125551 14.389841,53.88918 l 1.664396,1.306128 0,-6.060913 0,-6.060914 -3.293205,-1.618097 C 10.94977,40.565432 9.1802785,39.614872 8.828829,39.343029 l -0.6389985,-0.494259 0,-6.806422 c 0,-5.952884 0.056282,-6.868611 0.4488103,-7.30235 0.4029128,-0.445214 0.9445351,-0.49593 5.2963012,-0.49593 l 4.847491,0 1.713143,1.453304 c 4.585404,3.88992 9.795784,6.411103 13.249446,6.411103 0.500025,0 1.109185,0.242993 1.478178,0.589643 0.596976,0.56083 0.627647,0.771631 0.627647,4.313592 l 0,3.723948 -7.38983,8.328762 c -4.064407,4.580819 -7.389831,8.455179 -7.389831,8.609684 0,0.362419 2.362387,1.186522 5.288136,1.84473 3.106148,0.698793 9.428355,0.573277 12.522151,-0.248602 z"
     id="path5998"
     inkscape:connector-curvature="0" />
  <path
     style="opacity:0;fill:#787878;fill-opacity:0;fill-rule:evenodd;stroke:#565656;stroke-width:0.27118644;stroke-opacity:0.3372549"
     d="M 26.521243,63.401592 C 22.301672,62.639596 17.526742,60.699881 14.030431,58.327463 12.042127,56.978302 8.2460588,53.369657 6.7039477,51.362712 -1.3348876,40.900754 -2.0170468,26.414979 4.9949776,15.072421 6.9391582,11.92754 11.368017,7.4320835 14.556275,5.3673473 25.550226,-1.7524054 38.94874,-1.6010876 50.086709,5.7686148 c 3.823854,2.5301453 8.32589,7.7232292 10.553877,12.1738682 4.183146,8.356267 4.165711,19.711307 -0.04319,28.132093 -3.028011,6.05817 -8.513788,11.532212 -14.648356,14.617025 -5.361724,2.696185 -13.340892,3.809202 -19.427798,2.709991 z m 12.36023,-4.13136 c 4.294362,-1.140816 8.987143,-3.669305 12.078467,-6.507924 1.114606,-1.023493 1.16019,-1.134506 1.835675,-4.470612 1.174999,-5.803116 1.340428,-13.315493 0.398121,-18.079221 -0.503629,-2.546021 -0.422983,-2.442983 -1.91209,-2.442983 -3.972537,0 -8.154571,-2.899886 -10.098047,-7.00214 -0.801649,-1.692105 -0.858175,-2.007907 -0.858175,-4.794471 0,-2.786563 0.05653,-3.102365 0.858175,-4.79447 0.471997,-0.996281 1.38033,-2.3778903 2.018519,-3.0702437 C 44.514921,6.6839436 44.527173,6.7095558 42.088136,5.7795249 38.485532,4.4058145 36.708355,4.0940347 32.325424,4.0667986 29.139873,4.047002 27.613115,4.1600746 26.020339,4.5337521 l -2.101695,0.4930739 0,2.8803916 0,2.8803914 -4.467086,4.490942 -4.467087,4.490941 -4.278676,0.135593 -4.2786764,0.135593 -1.0031522,2.983051 C 4.7637275,24.987066 4.3057391,27.011647 4.084176,28.9464 3.007078,38.351935 7.0452643,48.125551 14.389841,53.88918 l 1.664396,1.306128 0,-6.060913 0,-6.060914 -3.293205,-1.618097 C 10.94977,40.565432 9.1802785,39.614872 8.828829,39.343029 l -0.6389985,-0.494259 0,-6.806422 c 0,-5.952884 0.056282,-6.868611 0.4488103,-7.30235 0.4029128,-0.445214 0.9445351,-0.49593 5.2963012,-0.49593 l 4.847491,0 1.713143,1.453304 c 4.585404,3.88992 9.795784,6.411103 13.249446,6.411103 0.500025,0 1.109185,0.242993 1.478178,0.589643 0.596976,0.56083 0.627647,0.771631 0.627647,4.313592 l 0,3.723948 -7.38983,8.328762 c -4.064407,4.580819 -7.389831,8.455179 -7.389831,8.609684 0,0.362419 2.362387,1.186522 5.288136,1.84473 3.106148,0.698793 9.428355,0.573277 12.522151,-0.248602 z"
     id="path6000"
     inkscape:connector-curvature="0" />
  <path
     style="opacity:0;fill:#787878;fill-opacity:0;fill-rule:evenodd;stroke:#565656;stroke-width:0.27118644;stroke-opacity:0.3372549"
     d="M 26.521243,63.401592 C 22.301672,62.639596 17.526742,60.699881 14.030431,58.327463 12.042127,56.978302 8.2460588,53.369657 6.7039477,51.362712 -1.3348876,40.900754 -2.0170468,26.414979 4.9949776,15.072421 6.9391582,11.92754 11.368017,7.4320835 14.556275,5.3673473 25.550226,-1.7524054 38.94874,-1.6010876 50.086709,5.7686148 c 3.823854,2.5301453 8.32589,7.7232292 10.553877,12.1738682 4.183146,8.356267 4.165711,19.711307 -0.04319,28.132093 -3.028011,6.05817 -8.513788,11.532212 -14.648356,14.617025 -5.361724,2.696185 -13.340892,3.809202 -19.427798,2.709991 z m 12.36023,-4.13136 c 4.294362,-1.140816 8.987143,-3.669305 12.078467,-6.507924 1.114606,-1.023493 1.16019,-1.134506 1.835675,-4.470612 1.174999,-5.803116 1.340428,-13.315493 0.398121,-18.079221 -0.503629,-2.546021 -0.422983,-2.442983 -1.91209,-2.442983 -3.972537,0 -8.154571,-2.899886 -10.098047,-7.00214 -0.801649,-1.692105 -0.858175,-2.007907 -0.858175,-4.794471 0,-2.786563 0.05653,-3.102365 0.858175,-4.79447 0.471997,-0.996281 1.38033,-2.3778903 2.018519,-3.0702437 C 44.514921,6.6839436 44.527173,6.7095558 42.088136,5.7795249 38.485532,4.4058145 36.708355,4.0940347 32.325424,4.0667986 29.139873,4.047002 27.613115,4.1600746 26.020339,4.5337521 l -2.101695,0.4930739 0,2.8803916 0,2.8803914 -4.467086,4.490942 -4.467087,4.490941 -4.278676,0.135593 -4.2786764,0.135593 -1.0031522,2.983051 C 4.7637275,24.987066 4.3057391,27.011647 4.084176,28.9464 3.007078,38.351935 7.0452643,48.125551 14.389841,53.88918 l 1.664396,1.306128 0,-6.060913 0,-6.060914 -3.293205,-1.618097 C 10.94977,40.565432 9.1802785,39.614872 8.828829,39.343029 l -0.6389985,-0.494259 0,-6.806422 c 0,-5.952884 0.056282,-6.868611 0.4488103,-7.30235 0.4029128,-0.445214 0.9445351,-0.49593 5.2963012,-0.49593 l 4.847491,0 1.713143,1.453304 c 4.585404,3.88992 9.795784,6.411103 13.249446,6.411103 0.500025,0 1.109185,0.242993 1.478178,0.589643 0.596976,0.56083 0.627647,0.771631 0.627647,4.313592 l 0,3.723948 -7.38983,8.328762 c -4.064407,4.580819 -7.389831,8.455179 -7.389831,8.609684 0,0.362419 2.362387,1.186522 5.288136,1.84473 3.106148,0.698793 9.428355,0.573277 12.522151,-0.248602 z"
     id="path6002"
     inkscape:connector-curvature="0" />
  <path
     style="opacity:0;fill:#787878;fill-opacity:0;fill-rule:evenodd;stroke:#565656;stroke-width:0.271;stroke-opacity:0.3372549;stroke-miterlimit:4;stroke-dasharray:none"
     d="M 26.521243,63.401592 C 22.301672,62.639596 17.526742,60.699881 14.030431,58.327463 12.042127,56.978302 8.2460588,53.369657 6.7039477,51.362712 -1.3348876,40.900754 -2.0170468,26.414979 4.9949776,15.072421 6.9391582,11.92754 11.368017,7.4320835 14.556275,5.3673473 25.550226,-1.7524054 38.94874,-1.6010876 50.086709,5.7686148 c 3.823854,2.5301453 8.32589,7.7232292 10.553877,12.1738682 4.183146,8.356267 4.165711,19.711307 -0.04319,28.132093 -3.028011,6.05817 -8.513788,11.532212 -14.648356,14.617025 -5.361724,2.696185 -13.340892,3.809202 -19.427798,2.709991 z m 12.36023,-4.13136 c 4.294362,-1.140816 8.987143,-3.669305 12.078467,-6.507924 1.114606,-1.023493 1.16019,-1.134506 1.835675,-4.470612 1.174999,-5.803116 1.340428,-13.315493 0.398121,-18.079221 -0.503629,-2.546021 -0.422983,-2.442983 -1.91209,-2.442983 -3.972537,0 -8.154571,-2.899886 -10.098047,-7.00214 -0.801649,-1.692105 -0.858175,-2.007907 -0.858175,-4.794471 0,-2.786563 0.05653,-3.102365 0.858175,-4.79447 0.471997,-0.996281 1.38033,-2.3778903 2.018519,-3.0702437 C 44.514921,6.6839436 44.527173,6.7095558 42.088136,5.7795249 38.485532,4.4058145 36.708355,4.0940347 32.325424,4.0667986 29.139873,4.047002 27.613115,4.1600746 26.020339,4.5337521 l -2.101695,0.4930739 0,2.8803916 0,2.8803914 -4.467086,4.490942 -4.467087,4.490941 -4.278676,0.135593 -4.2786764,0.135593 -1.0031522,2.983051 C 4.7637275,24.987066 4.3057391,27.011647 4.084176,28.9464 3.007078,38.351935 7.0452643,48.125551 14.389841,53.88918 l 1.664396,1.306128 0,-6.060913 0,-6.060914 -3.293205,-1.618097 C 10.94977,40.565432 9.1802785,39.614872 8.828829,39.343029 l -0.6389985,-0.494259 0,-6.806422 c 0,-5.952884 0.056282,-6.868611 0.4488103,-7.30235 0.4029128,-0.445214 0.9445351,-0.49593 5.2963012,-0.49593 l 4.847491,0 1.713143,1.453304 c 4.585404,3.88992 9.795784,6.411103 13.249446,6.411103 0.500025,0 1.109185,0.242993 1.478178,0.589643 0.596976,0.56083 0.627647,0.771631 0.627647,4.313592 l 0,3.723948 -7.38983,8.328762 c -4.064407,4.580819 -7.389831,8.455179 -7.389831,8.609684 0,0.362419 2.362387,1.186522 5.288136,1.84473 3.106148,0.698793 9.428355,0.573277 12.522151,-0.248602 z"
     id="path6004"
     inkscape:connector-curvature="0" />
  <path
     style="opacity:0;fill:#787878;fill-opacity:0;fill-rule:evenodd;stroke:#565656;stroke-width:0.07349152;stroke-miterlimit:4;stroke-dasharray:none;stroke-opacity:0.3372549"
     d="M 26.521243,63.401592 C 22.301672,62.639596 17.526742,60.699881 14.030431,58.327463 12.042127,56.978302 8.2460588,53.369657 6.7039477,51.362712 -1.3348876,40.900754 -2.0170468,26.414979 4.9949776,15.072421 6.9391582,11.92754 11.368017,7.4320835 14.556275,5.3673473 25.550226,-1.7524054 38.94874,-1.6010876 50.086709,5.7686148 c 3.823854,2.5301453 8.32589,7.7232292 10.553877,12.1738682 4.183146,8.356267 4.165711,19.711307 -0.04319,28.132093 -3.028011,6.05817 -8.513788,11.532212 -14.648356,14.617025 -5.361724,2.696185 -13.340892,3.809202 -19.427798,2.709991 z m 12.36023,-4.13136 c 4.294362,-1.140816 8.987143,-3.669305 12.078467,-6.507924 1.114606,-1.023493 1.16019,-1.134506 1.835675,-4.470612 1.174999,-5.803116 1.340428,-13.315493 0.398121,-18.079221 -0.503629,-2.546021 -0.422983,-2.442983 -1.91209,-2.442983 -3.972537,0 -8.154571,-2.899886 -10.098047,-7.00214 -0.801649,-1.692105 -0.858175,-2.007907 -0.858175,-4.794471 0,-2.786563 0.05653,-3.102365 0.858175,-4.79447 0.471997,-0.996281 1.38033,-2.3778903 2.018519,-3.0702437 C 44.514921,6.6839436 44.527173,6.7095558 42.088136,5.7795249 38.485532,4.4058145 36.708355,4.0940347 32.325424,4.0667986 29.139873,4.047002 27.613115,4.1600746 26.020339,4.5337521 l -2.101695,0.4930739 0,2.8803916 0,2.8803914 -4.467086,4.490942 -4.467087,4.490941 -4.278676,0.135593 -4.2786764,0.135593 -1.0031522,2.983051 C 4.7637275,24.987066 4.3057391,27.011647 4.084176,28.9464 3.007078,38.351935 7.0452643,48.125551 14.389841,53.88918 l 1.664396,1.306128 0,-6.060913 0,-6.060914 -3.293205,-1.618097 C 10.94977,40.565432 9.1802785,39.614872 8.828829,39.343029 l -0.6389985,-0.494259 0,-6.806422 c 0,-5.952884 0.056282,-6.868611 0.4488103,-7.30235 0.4029128,-0.445214 0.9445351,-0.49593 5.2963012,-0.49593 l 4.847491,0 1.713143,1.453304 c 4.585404,3.88992 9.795784,6.411103 13.249446,6.411103 0.500025,0 1.109185,0.242993 1.478178,0.589643 0.596976,0.56083 0.627647,0.771631 0.627647,4.313592 l 0,3.723948 -7.38983,8.328762 c -4.064407,4.580819 -7.389831,8.455179 -7.389831,8.609684 0,0.362419 2.362387,1.186522 5.288136,1.84473 3.106148,0.698793 9.428355,0.573277 12.522151,-0.248602 z"
     id="path6006"
     inkscape:connector-curvature="0" />
  <path
     style="opacity:0;fill:url(#linearGradient5586);fill-opacity:0;fill-rule:evenodd;stroke:#565656;stroke-width:0.07349152;stroke-miterlimit:4;stroke-dasharray:none;stroke-opacity:0.3372549"
     d="M 26.521243,63.401592 C 22.301672,62.639596 17.526742,60.699881 14.030431,58.327463 12.042127,56.978302 8.2460588,53.369657 6.7039477,51.362712 -1.3348876,40.900754 -2.0170468,26.414979 4.9949776,15.072421 6.9391582,11.92754 11.368017,7.4320835 14.556275,5.3673473 25.550226,-1.7524054 38.94874,-1.6010876 50.086709,5.7686148 c 3.823854,2.5301453 8.32589,7.7232292 10.553877,12.1738682 4.183146,8.356267 4.165711,19.711307 -0.04319,28.132093 -3.028011,6.05817 -8.513788,11.532212 -14.648356,14.617025 -5.361724,2.696185 -13.340892,3.809202 -19.427798,2.709991 z m 12.36023,-4.13136 c 4.294362,-1.140816 8.987143,-3.669305 12.078467,-6.507924 1.114606,-1.023493 1.16019,-1.134506 1.835675,-4.470612 1.174999,-5.803116 1.340428,-13.315493 0.398121,-18.079221 -0.503629,-2.546021 -0.422983,-2.442983 -1.91209,-2.442983 -3.972537,0 -8.154571,-2.899886 -10.098047,-7.00214 -0.801649,-1.692105 -0.858175,-2.007907 -0.858175,-4.794471 0,-2.786563 0.05653,-3.102365 0.858175,-4.79447 0.471997,-0.996281 1.38033,-2.3778903 2.018519,-3.0702437 C 44.514921,6.6839436 44.527173,6.7095558 42.088136,5.7795249 38.485532,4.4058145 36.708355,4.0940347 32.325424,4.0667986 29.139873,4.047002 27.613115,4.1600746 26.020339,4.5337521 l -2.101695,0.4930739 0,2.8803916 0,2.8803914 -4.467086,4.490942 -4.467087,4.490941 -4.278676,0.135593 -4.2786764,0.135593 -1.0031522,2.983051 C 4.7637275,24.987066 4.3057391,27.011647 4.084176,28.9464 3.007078,38.351935 7.0452643,48.125551 14.389841,53.88918 l 1.664396,1.306128 0,-6.060913 0,-6.060914 -3.293205,-1.618097 C 10.94977,40.565432 9.1802785,39.614872 8.828829,39.343029 l -0.6389985,-0.494259 0,-6.806422 c 0,-5.952884 0.056282,-6.868611 0.4488103,-7.30235 0.4029128,-0.445214 0.9445351,-0.49593 5.2963012,-0.49593 l 4.847491,0 1.713143,1.453304 c 4.585404,3.88992 9.795784,6.411103 13.249446,6.411103 0.500025,0 1.109185,0.242993 1.478178,0.589643 0.596976,0.56083 0.627647,0.771631 0.627647,4.313592 l 0,3.723948 -7.38983,8.328762 c -4.064407,4.580819 -7.389831,8.455179 -7.389831,8.609684 0,0.362419 2.362387,1.186522 5.288136,1.84473 3.106148,0.698793 9.428355,0.573277 12.522151,-0.248602 z"
     id="path6008"
     inkscape:connector-curvature="0" />
  <path
     style="opacity:0;fill:url(#linearGradient5586);fill-opacity:0;fill-rule:evenodd;stroke:#565656;stroke-width:0.07349152;stroke-miterlimit:4;stroke-dasharray:none;stroke-opacity:0.3372549"
     d="M 26.521243,63.401592 C 22.301672,62.639596 17.526742,60.699881 14.030431,58.327463 12.042127,56.978302 8.2460588,53.369657 6.7039477,51.362712 -1.3348876,40.900754 -2.0170468,26.414979 4.9949776,15.072421 6.9391582,11.92754 11.368017,7.4320835 14.556275,5.3673473 25.550226,-1.7524054 38.94874,-1.6010876 50.086709,5.7686148 c 3.823854,2.5301453 8.32589,7.7232292 10.553877,12.1738682 4.183146,8.356267 4.165711,19.711307 -0.04319,28.132093 -3.028011,6.05817 -8.513788,11.532212 -14.648356,14.617025 -5.361724,2.696185 -13.340892,3.809202 -19.427798,2.709991 z m 12.36023,-4.13136 c 4.294362,-1.140816 8.987143,-3.669305 12.078467,-6.507924 1.114606,-1.023493 1.16019,-1.134506 1.835675,-4.470612 1.174999,-5.803116 1.340428,-13.315493 0.398121,-18.079221 -0.503629,-2.546021 -0.422983,-2.442983 -1.91209,-2.442983 -3.972537,0 -8.154571,-2.899886 -10.098047,-7.00214 -0.801649,-1.692105 -0.858175,-2.007907 -0.858175,-4.794471 0,-2.786563 0.05653,-3.102365 0.858175,-4.79447 0.471997,-0.996281 1.38033,-2.3778903 2.018519,-3.0702437 C 44.514921,6.6839436 44.527173,6.7095558 42.088136,5.7795249 38.485532,4.4058145 36.708355,4.0940347 32.325424,4.0667986 29.139873,4.047002 27.613115,4.1600746 26.020339,4.5337521 l -2.101695,0.4930739 0,2.8803916 0,2.8803914 -4.467086,4.490942 -4.467087,4.490941 -4.278676,0.135593 -4.2786764,0.135593 -1.0031522,2.983051 C 4.7637275,24.987066 4.3057391,27.011647 4.084176,28.9464 3.007078,38.351935 7.0452643,48.125551 14.389841,53.88918 l 1.664396,1.306128 0,-6.060913 0,-6.060914 -3.293205,-1.618097 C 10.94977,40.565432 9.1802785,39.614872 8.828829,39.343029 l -0.6389985,-0.494259 0,-6.806422 c 0,-5.952884 0.056282,-6.868611 0.4488103,-7.30235 0.4029128,-0.445214 0.9445351,-0.49593 5.2963012,-0.49593 l 4.847491,0 1.713143,1.453304 c 4.585404,3.88992 9.795784,6.411103 13.249446,6.411103 0.500025,0 1.109185,0.242993 1.478178,0.589643 0.596976,0.56083 0.627647,0.771631 0.627647,4.313592 l 0,3.723948 -7.38983,8.328762 c -4.064407,4.580819 -7.389831,8.455179 -7.389831,8.609684 0,0.362419 2.362387,1.186522 5.288136,1.84473 3.106148,0.698793 9.428355,0.573277 12.522151,-0.248602 z"
     id="path6010"
     inkscape:connector-curvature="0" />
  <path
     style="opacity:0;fill:url(#linearGradient5586);fill-opacity:0;fill-rule:evenodd;stroke:#565656;stroke-width:0.07349152;stroke-miterlimit:4;stroke-dasharray:none;stroke-opacity:0.3372549"
     d="M 26.521243,63.401592 C 22.301672,62.639596 17.526742,60.699881 14.030431,58.327463 12.042127,56.978302 8.2460588,53.369657 6.7039477,51.362712 -1.3348876,40.900754 -2.0170468,26.414979 4.9949776,15.072421 6.9391582,11.92754 11.368017,7.4320835 14.556275,5.3673473 25.550226,-1.7524054 38.94874,-1.6010876 50.086709,5.7686148 c 3.823854,2.5301453 8.32589,7.7232292 10.553877,12.1738682 4.183146,8.356267 4.165711,19.711307 -0.04319,28.132093 -3.028011,6.05817 -8.513788,11.532212 -14.648356,14.617025 -5.361724,2.696185 -13.340892,3.809202 -19.427798,2.709991 z m 12.36023,-4.13136 c 4.294362,-1.140816 8.987143,-3.669305 12.078467,-6.507924 1.114606,-1.023493 1.16019,-1.134506 1.835675,-4.470612 1.174999,-5.803116 1.340428,-13.315493 0.398121,-18.079221 -0.503629,-2.546021 -0.422983,-2.442983 -1.91209,-2.442983 -3.972537,0 -8.154571,-2.899886 -10.098047,-7.00214 -0.801649,-1.692105 -0.858175,-2.007907 -0.858175,-4.794471 0,-2.786563 0.05653,-3.102365 0.858175,-4.79447 0.471997,-0.996281 1.38033,-2.3778903 2.018519,-3.0702437 C 44.514921,6.6839436 44.527173,6.7095558 42.088136,5.7795249 38.485532,4.4058145 36.708355,4.0940347 32.325424,4.0667986 29.139873,4.047002 27.613115,4.1600746 26.020339,4.5337521 l -2.101695,0.4930739 0,2.8803916 0,2.8803914 -4.467086,4.490942 -4.467087,4.490941 -4.278676,0.135593 -4.2786764,0.135593 -1.0031522,2.983051 C 4.7637275,24.987066 4.3057391,27.011647 4.084176,28.9464 3.007078,38.351935 7.0452643,48.125551 14.389841,53.88918 l 1.664396,1.306128 0,-6.060913 0,-6.060914 -3.293205,-1.618097 C 10.94977,40.565432 9.1802785,39.614872 8.828829,39.343029 l -0.6389985,-0.494259 0,-6.806422 c 0,-5.952884 0.056282,-6.868611 0.4488103,-7.30235 0.4029128,-0.445214 0.9445351,-0.49593 5.2963012,-0.49593 l 4.847491,0 1.713143,1.453304 c 4.585404,3.88992 9.795784,6.411103 13.249446,6.411103 0.500025,0 1.109185,0.242993 1.478178,0.589643 0.596976,0.56083 0.627647,0.771631 0.627647,4.313592 l 0,3.723948 -7.38983,8.328762 c -4.064407,4.580819 -7.389831,8.455179 -7.389831,8.609684 0,0.362419 2.362387,1.186522 5.288136,1.84473 3.106148,0.698793 9.428355,0.573277 12.522151,-0.248602 z"
     id="path6012"
     inkscape:connector-curvature="0" />
  <path
     style="opacity:0;fill:url(#linearGradient5586);fill-opacity:0;fill-rule:evenodd;stroke:#565656;stroke-width:0.07349152;stroke-miterlimit:4;stroke-dasharray:none;stroke-opacity:0.3372549"
     d="M 26.521243,63.401592 C 22.301672,62.639596 17.526742,60.699881 14.030431,58.327463 12.042127,56.978302 8.2460588,53.369657 6.7039477,51.362712 -1.3348876,40.900754 -2.0170468,26.414979 4.9949776,15.072421 6.9391582,11.92754 11.368017,7.4320835 14.556275,5.3673473 25.550226,-1.7524054 38.94874,-1.6010876 50.086709,5.7686148 c 3.823854,2.5301453 8.32589,7.7232292 10.553877,12.1738682 4.183146,8.356267 4.165711,19.711307 -0.04319,28.132093 -3.028011,6.05817 -8.513788,11.532212 -14.648356,14.617025 -5.361724,2.696185 -13.340892,3.809202 -19.427798,2.709991 z m 12.36023,-4.13136 c 4.294362,-1.140816 8.987143,-3.669305 12.078467,-6.507924 1.114606,-1.023493 1.16019,-1.134506 1.835675,-4.470612 1.174999,-5.803116 1.340428,-13.315493 0.398121,-18.079221 -0.503629,-2.546021 -0.422983,-2.442983 -1.91209,-2.442983 -3.972537,0 -8.154571,-2.899886 -10.098047,-7.00214 -0.801649,-1.692105 -0.858175,-2.007907 -0.858175,-4.794471 0,-2.786563 0.05653,-3.102365 0.858175,-4.79447 0.471997,-0.996281 1.38033,-2.3778903 2.018519,-3.0702437 C 44.514921,6.6839436 44.527173,6.7095558 42.088136,5.7795249 38.485532,4.4058145 36.708355,4.0940347 32.325424,4.0667986 29.139873,4.047002 27.613115,4.1600746 26.020339,4.5337521 l -2.101695,0.4930739 0,2.8803916 0,2.8803914 -4.467086,4.490942 -4.467087,4.490941 -4.278676,0.135593 -4.2786764,0.135593 -1.0031522,2.983051 C 4.7637275,24.987066 4.3057391,27.011647 4.084176,28.9464 3.007078,38.351935 7.0452643,48.125551 14.389841,53.88918 l 1.664396,1.306128 0,-6.060913 0,-6.060914 -3.293205,-1.618097 C 10.94977,40.565432 9.1802785,39.614872 8.828829,39.343029 l -0.6389985,-0.494259 0,-6.806422 c 0,-5.952884 0.056282,-6.868611 0.4488103,-7.30235 0.4029128,-0.445214 0.9445351,-0.49593 5.2963012,-0.49593 l 4.847491,0 1.713143,1.453304 c 4.585404,3.88992 9.795784,6.411103 13.249446,6.411103 0.500025,0 1.109185,0.242993 1.478178,0.589643 0.596976,0.56083 0.627647,0.771631 0.627647,4.313592 l 0,3.723948 -7.38983,8.328762 c -4.064407,4.580819 -7.389831,8.455179 -7.389831,8.609684 0,0.362419 2.362387,1.186522 5.288136,1.84473 3.106148,0.698793 9.428355,0.573277 12.522151,-0.248602 z"
     id="path6014"
     inkscape:connector-curvature="0" />
  <path
     style="opacity:0;fill:url(#linearGradient5586);fill-opacity:0;fill-rule:evenodd;stroke:#565656;stroke-width:0.07349152;stroke-miterlimit:4;stroke-dasharray:none;stroke-opacity:0.3372549"
     d="M 26.521243,63.401592 C 22.301672,62.639596 17.526742,60.699881 14.030431,58.327463 12.042127,56.978302 8.2460588,53.369657 6.7039477,51.362712 -1.3348876,40.900754 -2.0170468,26.414979 4.9949776,15.072421 6.9391582,11.92754 11.368017,7.4320835 14.556275,5.3673473 25.550226,-1.7524054 38.94874,-1.6010876 50.086709,5.7686148 c 3.823854,2.5301453 8.32589,7.7232292 10.553877,12.1738682 4.183146,8.356267 4.165711,19.711307 -0.04319,28.132093 -3.028011,6.05817 -8.513788,11.532212 -14.648356,14.617025 -5.361724,2.696185 -13.340892,3.809202 -19.427798,2.709991 z m 12.36023,-4.13136 c 4.294362,-1.140816 8.987143,-3.669305 12.078467,-6.507924 1.114606,-1.023493 1.16019,-1.134506 1.835675,-4.470612 1.174999,-5.803116 1.340428,-13.315493 0.398121,-18.079221 -0.503629,-2.546021 -0.422983,-2.442983 -1.91209,-2.442983 -3.972537,0 -8.154571,-2.899886 -10.098047,-7.00214 -0.801649,-1.692105 -0.858175,-2.007907 -0.858175,-4.794471 0,-2.786563 0.05653,-3.102365 0.858175,-4.79447 0.471997,-0.996281 1.38033,-2.3778903 2.018519,-3.0702437 C 44.514921,6.6839436 44.527173,6.7095558 42.088136,5.7795249 38.485532,4.4058145 36.708355,4.0940347 32.325424,4.0667986 29.139873,4.047002 27.613115,4.1600746 26.020339,4.5337521 l -2.101695,0.4930739 0,2.8803916 0,2.8803914 -4.467086,4.490942 -4.467087,4.490941 -4.278676,0.135593 -4.2786764,0.135593 -1.0031522,2.983051 C 4.7637275,24.987066 4.3057391,27.011647 4.084176,28.9464 3.007078,38.351935 7.0452643,48.125551 14.389841,53.88918 l 1.664396,1.306128 0,-6.060913 0,-6.060914 -3.293205,-1.618097 C 10.94977,40.565432 9.1802785,39.614872 8.828829,39.343029 l -0.6389985,-0.494259 0,-6.806422 c 0,-5.952884 0.056282,-6.868611 0.4488103,-7.30235 0.4029128,-0.445214 0.9445351,-0.49593 5.2963012,-0.49593 l 4.847491,0 1.713143,1.453304 c 4.585404,3.88992 9.795784,6.411103 13.249446,6.411103 0.500025,0 1.109185,0.242993 1.478178,0.589643 0.596976,0.56083 0.627647,0.771631 0.627647,4.313592 l 0,3.723948 -7.38983,8.328762 c -4.064407,4.580819 -7.389831,8.455179 -7.389831,8.609684 0,0.362419 2.362387,1.186522 5.288136,1.84473 3.106148,0.698793 9.428355,0.573277 12.522151,-0.248602 z"
     id="path6016"
     inkscape:connector-curvature="0" />
  <path
     style="opacity:0;fill:url(#linearGradient5586);fill-opacity:0;fill-rule:evenodd;stroke:#565656;stroke-width:0.07349152;stroke-miterlimit:4;stroke-dasharray:none;stroke-opacity:0.3372549"
     d="M 26.521243,63.401592 C 22.301672,62.639596 17.526742,60.699881 14.030431,58.327463 12.042127,56.978302 8.2460588,53.369657 6.7039477,51.362712 -1.3348876,40.900754 -2.0170468,26.414979 4.9949776,15.072421 6.9391582,11.92754 11.368017,7.4320835 14.556275,5.3673473 25.550226,-1.7524054 38.94874,-1.6010876 50.086709,5.7686148 c 3.823854,2.5301453 8.32589,7.7232292 10.553877,12.1738682 4.183146,8.356267 4.165711,19.711307 -0.04319,28.132093 -3.028011,6.05817 -8.513788,11.532212 -14.648356,14.617025 -5.361724,2.696185 -13.340892,3.809202 -19.427798,2.709991 z m 12.36023,-4.13136 c 4.294362,-1.140816 8.987143,-3.669305 12.078467,-6.507924 1.114606,-1.023493 1.16019,-1.134506 1.835675,-4.470612 1.174999,-5.803116 1.340428,-13.315493 0.398121,-18.079221 -0.503629,-2.546021 -0.422983,-2.442983 -1.91209,-2.442983 -3.972537,0 -8.154571,-2.899886 -10.098047,-7.00214 -0.801649,-1.692105 -0.858175,-2.007907 -0.858175,-4.794471 0,-2.786563 0.05653,-3.102365 0.858175,-4.79447 0.471997,-0.996281 1.38033,-2.3778903 2.018519,-3.0702437 C 44.514921,6.6839436 44.527173,6.7095558 42.088136,5.7795249 38.485532,4.4058145 36.708355,4.0940347 32.325424,4.0667986 29.139873,4.047002 27.613115,4.1600746 26.020339,4.5337521 l -2.101695,0.4930739 0,2.8803916 0,2.8803914 -4.467086,4.490942 -4.467087,4.490941 -4.278676,0.135593 -4.2786764,0.135593 -1.0031522,2.983051 C 4.7637275,24.987066 4.3057391,27.011647 4.084176,28.9464 3.007078,38.351935 7.0452643,48.125551 14.389841,53.88918 l 1.664396,1.306128 0,-6.060913 0,-6.060914 -3.293205,-1.618097 C 10.94977,40.565432 9.1802785,39.614872 8.828829,39.343029 l -0.6389985,-0.494259 0,-6.806422 c 0,-5.952884 0.056282,-6.868611 0.4488103,-7.30235 0.4029128,-0.445214 0.9445351,-0.49593 5.2963012,-0.49593 l 4.847491,0 1.713143,1.453304 c 4.585404,3.88992 9.795784,6.411103 13.249446,6.411103 0.500025,0 1.109185,0.242993 1.478178,0.589643 0.596976,0.56083 0.627647,0.771631 0.627647,4.313592 l 0,3.723948 -7.38983,8.328762 c -4.064407,4.580819 -7.389831,8.455179 -7.389831,8.609684 0,0.362419 2.362387,1.186522 5.288136,1.84473 3.106148,0.698793 9.428355,0.573277 12.522151,-0.248602 z"
     id="path6018"
     inkscape:connector-curvature="0" />
  <path
     style="opacity:0;fill:url(#linearGradient5586);fill-opacity:0;fill-rule:evenodd;stroke:#565656;stroke-width:0.07349152;stroke-miterlimit:4;stroke-dasharray:none;stroke-opacity:0.3372549"
     d="M 26.521243,63.401592 C 22.301672,62.639596 17.526742,60.699881 14.030431,58.327463 12.042127,56.978302 8.2460588,53.369657 6.7039477,51.362712 -1.3348876,40.900754 -2.0170468,26.414979 4.9949776,15.072421 6.9391582,11.92754 11.368017,7.4320835 14.556275,5.3673473 25.550226,-1.7524054 38.94874,-1.6010876 50.086709,5.7686148 c 3.823854,2.5301453 8.32589,7.7232292 10.553877,12.1738682 4.183146,8.356267 4.165711,19.711307 -0.04319,28.132093 -3.028011,6.05817 -8.513788,11.532212 -14.648356,14.617025 -5.361724,2.696185 -13.340892,3.809202 -19.427798,2.709991 z m 12.36023,-4.13136 c 4.294362,-1.140816 8.987143,-3.669305 12.078467,-6.507924 1.114606,-1.023493 1.16019,-1.134506 1.835675,-4.470612 1.174999,-5.803116 1.340428,-13.315493 0.398121,-18.079221 -0.503629,-2.546021 -0.422983,-2.442983 -1.91209,-2.442983 -3.972537,0 -8.154571,-2.899886 -10.098047,-7.00214 -0.801649,-1.692105 -0.858175,-2.007907 -0.858175,-4.794471 0,-2.786563 0.05653,-3.102365 0.858175,-4.79447 0.471997,-0.996281 1.38033,-2.3778903 2.018519,-3.0702437 C 44.514921,6.6839436 44.527173,6.7095558 42.088136,5.7795249 38.485532,4.4058145 36.708355,4.0940347 32.325424,4.0667986 29.139873,4.047002 27.613115,4.1600746 26.020339,4.5337521 l -2.101695,0.4930739 0,2.8803916 0,2.8803914 -4.467086,4.490942 -4.467087,4.490941 -4.278676,0.135593 -4.2786764,0.135593 -1.0031522,2.983051 C 4.7637275,24.987066 4.3057391,27.011647 4.084176,28.9464 3.007078,38.351935 7.0452643,48.125551 14.389841,53.88918 l 1.664396,1.306128 0,-6.060913 0,-6.060914 -3.293205,-1.618097 C 10.94977,40.565432 9.1802785,39.614872 8.828829,39.343029 l -0.6389985,-0.494259 0,-6.806422 c 0,-5.952884 0.056282,-6.868611 0.4488103,-7.30235 0.4029128,-0.445214 0.9445351,-0.49593 5.2963012,-0.49593 l 4.847491,0 1.713143,1.453304 c 4.585404,3.88992 9.795784,6.411103 13.249446,6.411103 0.500025,0 1.109185,0.242993 1.478178,0.589643 0.596976,0.56083 0.627647,0.771631 0.627647,4.313592 l 0,3.723948 -7.38983,8.328762 c -4.064407,4.580819 -7.389831,8.455179 -7.389831,8.609684 0,0.362419 2.362387,1.186522 5.288136,1.84473 3.106148,0.698793 9.428355,0.573277 12.522151,-0.248602 z"
     id="path6020"
     inkscape:connector-curvature="0" />
  <path
     style="opacity:0;fill:url(#linearGradient5586);fill-opacity:0;fill-rule:evenodd;stroke:#565656;stroke-width:0.07349152;stroke-miterlimit:4;stroke-dasharray:none;stroke-opacity:0.3372549"
     d="M 26.521243,63.401592 C 22.301672,62.639596 17.526742,60.699881 14.030431,58.327463 12.042127,56.978302 8.2460588,53.369657 6.7039477,51.362712 -1.3348876,40.900754 -2.0170468,26.414979 4.9949776,15.072421 6.9391582,11.92754 11.368017,7.4320835 14.556275,5.3673473 25.550226,-1.7524054 38.94874,-1.6010876 50.086709,5.7686148 c 3.823854,2.5301453 8.32589,7.7232292 10.553877,12.1738682 4.183146,8.356267 4.165711,19.711307 -0.04319,28.132093 -3.028011,6.05817 -8.513788,11.532212 -14.648356,14.617025 -5.361724,2.696185 -13.340892,3.809202 -19.427798,2.709991 z m 12.36023,-4.13136 c 4.294362,-1.140816 8.987143,-3.669305 12.078467,-6.507924 1.114606,-1.023493 1.16019,-1.134506 1.835675,-4.470612 1.174999,-5.803116 1.340428,-13.315493 0.398121,-18.079221 -0.503629,-2.546021 -0.422983,-2.442983 -1.91209,-2.442983 -3.972537,0 -8.154571,-2.899886 -10.098047,-7.00214 -0.801649,-1.692105 -0.858175,-2.007907 -0.858175,-4.794471 0,-2.786563 0.05653,-3.102365 0.858175,-4.79447 0.471997,-0.996281 1.38033,-2.3778903 2.018519,-3.0702437 C 44.514921,6.6839436 44.527173,6.7095558 42.088136,5.7795249 38.485532,4.4058145 36.708355,4.0940347 32.325424,4.0667986 29.139873,4.047002 27.613115,4.1600746 26.020339,4.5337521 l -2.101695,0.4930739 0,2.8803916 0,2.8803914 -4.467086,4.490942 -4.467087,4.490941 -4.278676,0.135593 -4.2786764,0.135593 -1.0031522,2.983051 C 4.7637275,24.987066 4.3057391,27.011647 4.084176,28.9464 3.007078,38.351935 7.0452643,48.125551 14.389841,53.88918 l 1.664396,1.306128 0,-6.060913 0,-6.060914 -3.293205,-1.618097 C 10.94977,40.565432 9.1802785,39.614872 8.828829,39.343029 l -0.6389985,-0.494259 0,-6.806422 c 0,-5.952884 0.056282,-6.868611 0.4488103,-7.30235 0.4029128,-0.445214 0.9445351,-0.49593 5.2963012,-0.49593 l 4.847491,0 1.713143,1.453304 c 4.585404,3.88992 9.795784,6.411103 13.249446,6.411103 0.500025,0 1.109185,0.242993 1.478178,0.589643 0.596976,0.56083 0.627647,0.771631 0.627647,4.313592 l 0,3.723948 -7.38983,8.328762 c -4.064407,4.580819 -7.389831,8.455179 -7.389831,8.609684 0,0.362419 2.362387,1.186522 5.288136,1.84473 3.106148,0.698793 9.428355,0.573277 12.522151,-0.248602 z"
     id="path6022"
     inkscape:connector-curvature="0" />
</svg>
