<svg width="16" height="16" xmlns="http://www.w3.org/2000/svg">
 <g>
  <title>Layer 1</title>
  <path id="svg_1" d="m3.51,13.925c0.194,0.194 0.512,0.195 0.706,0.000999l3.432,-3.431c0.194,-0.194 0.513999,-0.194 0.708,0l3.432,3.431c0.191999,0.194 0.514,0.193001 0.707,-0.000999l1.405,-1.417c0.191,-0.195001 0.189,-0.514 -0.002,-0.709001l-3.396999,-3.4c-0.192,-0.193 -0.192,-0.514 -0.002001,-0.708l3.401,-3.43c0.189,-0.195 0.189,-0.515 0,-0.709l-1.407,-1.418c-0.195,-0.195 -0.513,-0.195 -0.707,-0.001l-3.43,3.431c-0.195,0.194 -0.516,0.194 -0.708,0l-3.432,-3.431c-0.195,-0.195 -0.512,-0.194 -0.706,0.001l-1.407,1.417c-0.194,0.195 -0.194,0.515 0,0.71l3.403,3.429c0.193,0.195 0.193,0.514 -0.001,0.708l-3.4,3.399c-0.194,0.195 -0.195,0.516 -0.001,0.709l1.406,1.419001z" fill="#e32700"/>
 </g>
</svg>
