<?xml version="1.0" encoding="UTF-8" standalone="no"?>
<svg
   xmlns:dc="http://purl.org/dc/elements/1.1/"
   xmlns:cc="http://creativecommons.org/ns#"
   xmlns:rdf="http://www.w3.org/1999/02/22-rdf-syntax-ns#"
   xmlns:svg="http://www.w3.org/2000/svg"
   xmlns="http://www.w3.org/2000/svg"
   xmlns:sodipodi="http://sodipodi.sourceforge.net/DTD/sodipodi-0.dtd"
   xmlns:inkscape="http://www.inkscape.org/namespaces/inkscape"
   width="16"
   height="16"
   id="svg2"
   version="1.1"
   inkscape:version="0.91 r13725"
   sodipodi:docname="chevron-right2.svg">
  <metadata
     id="metadata10">
    <rdf:RDF>
      <cc:Work
         rdf:about="">
        <dc:format>image/svg+xml</dc:format>
        <dc:type
           rdf:resource="http://purl.org/dc/dcmitype/StillImage" />
        <dc:title></dc:title>
      </cc:Work>
    </rdf:RDF>
  </metadata>
  <defs
     id="defs8" />
  <sodipodi:namedview
     pagecolor="#ffffff"
     bordercolor="#666666"
     borderopacity="1"
     objecttolerance="10"
     gridtolerance="10"
     guidetolerance="10"
     inkscape:pageopacity="0"
     inkscape:pageshadow="2"
     inkscape:window-width="2301"
     inkscape:window-height="1078"
     id="namedview6"
     showgrid="false"
     inkscape:zoom="41.7193"
     inkscape:cx="9.6183825"
     inkscape:cy="6.6924528"
     inkscape:window-x="0"
     inkscape:window-y="0"
     inkscape:window-maximized="0"
     inkscape:current-layer="svg2" />
  <path
     d="m 12.500756,15.173748 1.371,-1.371 c 0.194,-0.194 0.193,-0.512 -10e-4,-0.706 L 8.5017561,7.7617471 c -0.195,-0.195 -0.515,-0.195 -0.7080001,0 L 2.4237561,13.096748 c -0.1920001,0.194 -0.193,0.512 -0.002,0.706 l 1.371,1.371 z"
     id="path4"
     inkscape:connector-curvature="0"
     style="fill:#0074bd"
     sodipodi:nodetypes="csccccccc" />
  <path
     sodipodi:nodetypes="csccccccc"
     style="fill:#0074bd"
     inkscape:connector-curvature="0"
     id="path4158"
     d="m 12.500756,0.82869696 1.371,1.37100004 c 0.194,0.194 0.193,0.5119998 -10e-4,0.7059998 L 8.5017561,8.240697 c -0.195,0.195 -0.515,0.195 -0.708,0 l -5.37,-5.3350002 c -0.192,-0.194 -0.193,-0.5119998 -0.002,-0.7059998 l 1.371,-1.37100004 z" />
</svg>
