<?xml version="1.0" encoding="UTF-8" standalone="no"?>
<svg
   xmlns:osb="http://www.openswatchbook.org/uri/2009/osb"
   xmlns:dc="http://purl.org/dc/elements/1.1/"
   xmlns:cc="http://creativecommons.org/ns#"
   xmlns:rdf="http://www.w3.org/1999/02/22-rdf-syntax-ns#"
   xmlns:svg="http://www.w3.org/2000/svg"
   xmlns="http://www.w3.org/2000/svg"
   xmlns:sodipodi="http://sodipodi.sourceforge.net/DTD/sodipodi-0.dtd"
   xmlns:inkscape="http://www.inkscape.org/namespaces/inkscape"
   width="16"
   height="16"
   fill="#73b355"
   id="svg2"
   version="1.1"
   inkscape:version="0.91 r13725"
   sodipodi:docname="outdated.svg">
  <metadata
     id="metadata10">
    <rdf:RDF>
      <cc:Work
         rdf:about="">
        <dc:format>image/svg+xml</dc:format>
        <dc:type
           rdf:resource="http://purl.org/dc/dcmitype/StillImage" />
      </cc:Work>
    </rdf:RDF>
  </metadata>
  <defs
     id="defs8">
    <linearGradient
       id="linearGradient4181"
       osb:paint="solid">
      <stop
         style="stop-color:#bfbfbf;stop-opacity:1;"
         offset="0"
         id="stop4183" />
    </linearGradient>
    <linearGradient
       id="linearGradient4175"
       osb:paint="solid">
      <stop
         style="stop-color:#e29700;stop-opacity:1;"
         offset="0"
         id="stop4177" />
    </linearGradient>
    <linearGradient
       id="linearGradient4148"
       osb:paint="solid">
      <stop
         style="stop-color:#bebebe;stop-opacity:0.6901961;"
         offset="0"
         id="stop4150" />
    </linearGradient>
  </defs>
  <sodipodi:namedview
     pagecolor="#ffffff"
     bordercolor="#666666"
     borderopacity="1"
     objecttolerance="10"
     gridtolerance="10"
     guidetolerance="10"
     inkscape:pageopacity="0"
     inkscape:pageshadow="2"
     inkscape:window-width="1681"
     inkscape:window-height="1044"
     id="namedview6"
     showgrid="false"
     inkscape:zoom="29.5"
     inkscape:cx="3.5596771"
     inkscape:cy="5.7504659"
     inkscape:window-x="601"
     inkscape:window-y="132"
     inkscape:window-maximized="0"
     inkscape:current-layer="svg2" />
  <path
     style="fill:#bebebe;fill-opacity:0"
     d="M 3.3009649,11.209985 C 0.85991153,8.7712594 0.70508475,8.6022315 0.70508475,8.3760032 0.70508475,8.158113 0.78397325,8.0574353 1.541639,7.3083911 2.2193598,6.6383819 2.4150342,6.481356 2.5722298,6.481356 c 0.1625459,0 0.4479421,0.2530664 1.7585287,1.559322 C 5.7656979,9.4708753 5.9146172,9.6 6.1291236,9.6 6.3474494,9.6 6.5915116,9.3716478 9.8004732,6.164972 12.882249,3.085391 13.260037,2.729944 13.451397,2.729944 c 0.18243,0 0.332543,0.119095 1.033003,0.819554 0.702607,0.702608 0.819555,0.850203 0.819555,1.034333 0,0.193834 -0.439183,0.653814 -4.50389,4.7171678 C 6.8795038,13.220255 6.2703148,13.80339 6.0965099,13.80339 c -0.1723014,0 -0.5554218,-0.355418 -2.795545,-2.593405 z"
     id="path4138"
     inkscape:connector-curvature="0" />
  <path
     style="fill:#bebebe;fill-opacity:0"
     d="M 3.3009649,11.209985 C 0.85991153,8.7712594 0.70508475,8.6022315 0.70508475,8.3760032 0.70508475,8.158113 0.78397325,8.0574353 1.541639,7.3083911 2.2193598,6.6383819 2.4150342,6.481356 2.5722298,6.481356 c 0.1625459,0 0.4479421,0.2530664 1.7585287,1.559322 C 5.7656979,9.4708753 5.9146172,9.6 6.1291236,9.6 6.3474494,9.6 6.5915116,9.3716478 9.8004732,6.164972 12.882249,3.085391 13.260037,2.729944 13.451397,2.729944 c 0.18243,0 0.332543,0.119095 1.033003,0.819554 0.702607,0.702608 0.819555,0.850203 0.819555,1.034333 0,0.193834 -0.439183,0.653814 -4.50389,4.7171678 C 6.8795038,13.220255 6.2703148,13.80339 6.0965099,13.80339 c -0.1723014,0 -0.5554218,-0.355418 -2.795545,-2.593405 z"
     id="path4140"
     inkscape:connector-curvature="0" />
  <path
     style="fill:#bebebe;fill-opacity:0"
     d="M 3.3009649,11.209985 C 0.85991153,8.7712594 0.70508475,8.6022315 0.70508475,8.3760032 0.70508475,8.158113 0.78397325,8.0574353 1.541639,7.3083911 2.2193598,6.6383819 2.4150342,6.481356 2.5722298,6.481356 c 0.1625459,0 0.4479421,0.2530664 1.7585287,1.559322 C 5.7656979,9.4708753 5.9146172,9.6 6.1291236,9.6 6.3474494,9.6 6.5915116,9.3716478 9.8004732,6.164972 12.882249,3.085391 13.260037,2.729944 13.451397,2.729944 c 0.18243,0 0.332543,0.119095 1.033003,0.819554 0.702607,0.702608 0.819555,0.850203 0.819555,1.034333 0,0.193834 -0.439183,0.653814 -4.50389,4.7171678 C 6.8795038,13.220255 6.2703148,13.80339 6.0965099,13.80339 c -0.1723014,0 -0.5554218,-0.355418 -2.795545,-2.593405 z"
     id="path4142"
     inkscape:connector-curvature="0" />
  <path
     style="fill:#bebebe;fill-opacity:0"
     d="M 3.3009649,11.209985 C 0.85991153,8.7712594 0.70508475,8.6022315 0.70508475,8.3760032 0.70508475,8.158113 0.78397325,8.0574353 1.541639,7.3083911 2.2193598,6.6383819 2.4150342,6.481356 2.5722298,6.481356 c 0.1625459,0 0.4479421,0.2530664 1.7585287,1.559322 C 5.7656979,9.4708753 5.9146172,9.6 6.1291236,9.6 6.3474494,9.6 6.5915116,9.3716478 9.8004732,6.164972 12.882249,3.085391 13.260037,2.729944 13.451397,2.729944 c 0.18243,0 0.332543,0.119095 1.033003,0.819554 0.702607,0.702608 0.819555,0.850203 0.819555,1.034333 0,0.193834 -0.439183,0.653814 -4.50389,4.7171678 C 6.8795038,13.220255 6.2703148,13.80339 6.0965099,13.80339 c -0.1723014,0 -0.5554218,-0.355418 -2.795545,-2.593405 z"
     id="path4144"
     inkscape:connector-curvature="0" />
  <path
     style="fill:#bebebe;fill-opacity:0"
     d="M 3.3009649,11.209985 C 0.85991153,8.7712594 0.70508475,8.6022315 0.70508475,8.3760032 0.70508475,8.158113 0.78397325,8.0574353 1.541639,7.3083911 2.2193598,6.6383819 2.4150342,6.481356 2.5722298,6.481356 c 0.1625459,0 0.4479421,0.2530664 1.7585287,1.559322 C 5.7656979,9.4708753 5.9146172,9.6 6.1291236,9.6 6.3474494,9.6 6.5915116,9.3716478 9.8004732,6.164972 12.882249,3.085391 13.260037,2.729944 13.451397,2.729944 c 0.18243,0 0.332543,0.119095 1.033003,0.819554 0.702607,0.702608 0.819555,0.850203 0.819555,1.034333 0,0.193834 -0.439183,0.653814 -4.50389,4.7171678 C 6.8795038,13.220255 6.2703148,13.80339 6.0965099,13.80339 c -0.1723014,0 -0.5554218,-0.355418 -2.795545,-2.593405 z"
     id="path4146"
     inkscape:connector-curvature="0" />
  <path
     style="fill:#ea2800;fill-opacity:0"
     d="m 12.793553,15.715807 c -0.01328,-0.01328 -0.02414,-0.143095 -0.02414,-0.288484 0,-0.301201 0.008,-0.310806 0.288135,-0.347073 0.728938,-0.09436 1.390036,-0.643285 1.700529,-1.411987 0.1045,-0.258716 0.146482,-0.511525 0.146733,-0.883603 3.96e-4,-0.588023 -0.210312,-1.107438 -0.629404,-1.551535 -0.275964,-0.292428 -0.50583,-0.444044 -0.867532,-0.572209 -0.317079,-0.112353 -0.843272,-0.125804 -1.163885,-0.02975 -0.588729,0.176377 -1.088116,0.599587 -1.352989,1.146601 -0.0839,0.173267 -0.166863,0.379972 -0.184364,0.459344 -0.0396,0.179579 -0.05308,0.175378 0.598216,0.18644 l 0.484591,0.0082 -0.66785,0.804844 c -0.570305,0.68729 -0.675425,0.79869 -0.719717,0.762712 -0.07654,-0.06217 -1.2934803,-1.528763 -1.2934803,-1.55883 0,-0.01412 0.2211865,-0.02567 0.4915254,-0.02567 0.4873369,0 0.4915259,-6.51e-4 0.4915259,-0.07638 0,-0.130177 0.129238,-0.536259 0.254844,-0.80075 0.348691,-0.734243 0.951561,-1.2626 1.712452,-1.500797 0.212788,-0.066613 0.325843,-0.079215 0.71067,-0.079215 0.384827,0 0.497881,0.012602 0.71067,0.079215 0.972794,0.304534 1.698468,1.08744 1.935095,2.087713 0.08748,0.369796 0.09533,0.965906 0.01756,1.332332 -0.184943,0.871293 -0.738823,1.604941 -1.500356,1.987313 -0.318537,0.159939 -1.071009,0.339361 -1.138826,0.271544 z"
     id="path4157"
     inkscape:connector-curvature="0" />
  <path
     style="fill:#ea2800;fill-opacity:0"
     d="m 12.794837,15.717368 c -0.01398,-0.01413 -0.02542,-0.144656 -0.02542,-0.290045 0,-0.303082 0.007,-0.311215 0.300205,-0.348577 0.09986,-0.01273 0.279554,-0.06002 0.399324,-0.105102 0.661667,-0.24905 1.239556,-0.932766 1.389168,-1.643559 0.07712,-0.366393 0.04797,-0.918261 -0.06596,-1.248641 -0.307977,-0.893084 -1.104427,-1.502326 -1.971735,-1.508272 -0.3652,-0.0025 -0.597213,0.04794 -0.915404,0.199022 -0.579828,0.275312 -1.099145,0.926513 -1.193724,1.496879 -0.02294,0.138344 -0.0018,0.143675 0.612397,0.154462 l 0.46952,0.0082 -0.670313,0.80502 c -0.651811,0.7828 -0.672133,0.803384 -0.736237,0.745763 -0.119407,-0.10733 -1.2782533,-1.507886 -1.2782533,-1.544869 0,-0.01155 0.2158486,-0.02523 0.4796634,-0.03041 l 0.4796639,-0.0094 0.06283,-0.266452 c 0.23412,-0.992841 0.972941,-1.7955 1.927849,-2.094422 0.3665,-0.1147279 1.05473,-0.1147939 1.422874,-1.36e-4 0.773178,0.240805 1.35743,0.744765 1.71323,1.477788 0.205463,0.423295 0.293164,0.814848 0.292598,1.30634 -5.16e-4,0.445509 -0.05532,0.749095 -0.205216,1.136764 -0.146565,0.379053 -0.340876,0.664235 -0.683239,1.002762 -0.250402,0.247595 -0.347731,0.317356 -0.646744,0.463554 -0.344626,0.1685 -0.622618,0.254456 -0.962154,0.297501 -0.09322,0.01182 -0.180933,0.0099 -0.194916,-0.0042 z"
     id="path4159"
     inkscape:connector-curvature="0" />
  <path
     style="fill:#ea2800;fill-opacity:0"
     d="m 12.794837,15.717368 c -0.01398,-0.01413 -0.02542,-0.144656 -0.02542,-0.290045 0,-0.303082 0.007,-0.311215 0.300205,-0.348577 0.09986,-0.01273 0.279554,-0.06002 0.399324,-0.105102 0.661667,-0.24905 1.239556,-0.932766 1.389168,-1.643559 0.07712,-0.366393 0.04797,-0.918261 -0.06596,-1.248641 -0.307977,-0.893084 -1.104427,-1.502326 -1.971735,-1.508272 -0.3652,-0.0025 -0.597213,0.04794 -0.915404,0.199022 -0.579828,0.275312 -1.099145,0.926513 -1.193724,1.496879 -0.02294,0.138344 -0.0018,0.143675 0.612397,0.154462 l 0.46952,0.0082 -0.670313,0.80502 c -0.651811,0.7828 -0.672133,0.803384 -0.736237,0.745763 -0.119407,-0.10733 -1.2782533,-1.507886 -1.2782533,-1.544869 0,-0.01155 0.2158486,-0.02523 0.4796634,-0.03041 l 0.4796639,-0.0094 0.06283,-0.266452 c 0.23412,-0.992841 0.972941,-1.7955 1.927849,-2.094422 0.3665,-0.1147279 1.05473,-0.1147939 1.422874,-1.36e-4 0.773178,0.240805 1.35743,0.744765 1.71323,1.477788 0.205463,0.423295 0.293164,0.814848 0.292598,1.30634 -5.16e-4,0.445509 -0.05532,0.749095 -0.205216,1.136764 -0.146565,0.379053 -0.340876,0.664235 -0.683239,1.002762 -0.250402,0.247595 -0.347731,0.317356 -0.646744,0.463554 -0.344626,0.1685 -0.622618,0.254456 -0.962154,0.297501 -0.09322,0.01182 -0.180933,0.0099 -0.194916,-0.0042 z"
     id="path4161"
     inkscape:connector-curvature="0" />
  <path
     inkscape:connector-curvature="0"
     style="fill:#bebebe;fill-opacity:0.74509805"
     id="path4711"
     d="m 4.5352135,13.724282 c -0.1296242,0.129625 -0.3427691,0.129625 -0.4723932,0 L 0.74871812,10.413521 c -0.12962416,-0.128957 -0.12962416,-0.34277 0,-0.4723937 L 1.6874909,9.0010182 c 0.1296243,-0.1302923 0.342101,-0.1302923 0.4723934,0 l 1.9036041,1.9029368 c 0.1296242,0.128955 0.3427691,0.128955 0.4723932,0 L 8.9651529,6.4766879 c 0.1302923,-0.1296241 0.343437,-0.1296241 0.4723929,0 L 10.37565,7.4147926 c 0.128957,0.1296243 0.128957,0.342769 0,0.4723933 L 4.5352135,13.724282 Z" />
  <path
     style="fill:none;fill-opacity:1;stroke:#e29700;stroke-width:2.42290759;stroke-opacity:1"
     id="path4713"
     sodipodi:type="arc"
     sodipodi:cx="2.4777539"
     sodipodi:cy="-10.884011"
     sodipodi:rx="6.611619"
     sodipodi:ry="6.6117058"
     sodipodi:start="1.17762"
     sodipodi:end="5.7670223"
     d="m 5.0108258,-4.7767998 a 6.611619,6.6117058 0 0 1 -8.5312564,-3.3259362 6.611619,6.6117058 0 0 1 2.97345242,-8.660511 6.611619,6.6117058 0 0 1 8.77498478,2.61605"
     sodipodi:open="true"
     transform="matrix(-0.5408449,0.84112234,-0.84113781,-0.54082084,0,0)" />
</svg>
