<svg width="18" height="11" viewBox="0 0 18 11" fill="none" xmlns="http://www.w3.org/2000/svg">
<path d="M1.54017 0.24491C1.70447 0.244342 1.86726 0.276303 2.01915 0.338948C2.17105 0.401593 2.30904 0.493682 2.42517 0.60991L9.04017 7.22491L15.6552 0.609911C15.7714 0.493691 15.9094 0.401501 16.0612 0.338604C16.2131 0.275706 16.3758 0.243332 16.5402 0.243332C16.8721 0.243332 17.1905 0.375194 17.4252 0.609911C17.6599 0.844627 17.7917 1.16297 17.7917 1.49491C17.7917 1.82685 17.6599 2.14519 17.4252 2.37991L9.92517 9.87991C9.68937 10.1126 9.37143 10.243 9.04017 10.243C8.7089 10.243 8.39096 10.1126 8.15517 9.87991L0.655171 2.37991C0.422498 2.14411 0.292041 1.82618 0.292041 1.49491C0.292041 1.16364 0.422498 0.845704 0.655171 0.609909C0.771304 0.493682 0.909295 0.401593 1.06119 0.338948C1.21308 0.276303 1.37587 0.244342 1.54017 0.24491Z" fill="#4F66EE"/>
</svg>
