<svg width="18" height="11" viewBox="0 0 18 11" fill="none" xmlns="http://www.w3.org/2000/svg">
<path d="M16.4598 10.755C16.2955 10.7555 16.1327 10.7236 15.9808 10.6609C15.829 10.5983 15.691 10.5062 15.5748 10.39L8.95983 3.77497L2.34483 10.39C2.22861 10.5062 2.09064 10.5984 1.93879 10.6613C1.78694 10.7242 1.62419 10.7565 1.45983 10.7565C1.12789 10.7565 0.809548 10.6247 0.574831 10.39C0.340114 10.1553 0.208252 9.83691 0.208252 9.50497C0.208252 9.17303 0.340114 8.85468 0.574831 8.61997L8.07483 1.11997C8.31063 0.887292 8.62857 0.756836 8.95983 0.756836C9.2911 0.756836 9.60904 0.887292 9.84483 1.11997L17.3448 8.61997C17.5775 8.85576 17.708 9.1737 17.708 9.50497C17.708 9.83623 17.5775 10.1542 17.3448 10.39C17.2287 10.5062 17.0907 10.5983 16.9388 10.6609C16.7869 10.7236 16.6241 10.7555 16.4598 10.755Z" fill="#0c1464"/>
</svg>
