<svg width="20" height="20" viewBox="0 0 20 20" fill="none" xmlns="http://www.w3.org/2000/svg">
<path d="M11.7699 9.99999L18.8849 2.88499C19.1196 2.65028 19.2514 2.33193 19.2514 1.99999C19.2514 1.66805 19.1196 1.34971 18.8849 1.11499C18.6502 0.880275 18.3318 0.748413 17.9999 0.748413C17.6679 0.748413 17.3496 0.880276 17.1149 1.11499L9.99987 8.22999L2.88487 1.11499C2.65015 0.880275 2.33181 0.748413 1.99987 0.748413C1.66793 0.748413 1.34959 0.880275 1.11487 1.11499C0.880153 1.34971 0.748291 1.66805 0.748291 1.99999C0.748291 2.33193 0.880153 2.65028 1.11487 2.88499L8.22987 9.99999L1.11487 17.115C0.882196 17.3508 0.75174 17.6687 0.75174 18C0.75174 18.3313 0.882196 18.6492 1.11487 18.885C1.35003 19.1189 1.66821 19.2502 1.99987 19.2502C2.33153 19.2502 2.64971 19.1189 2.88487 18.885L9.99987 11.77L17.1149 18.885C17.35 19.1189 17.6682 19.2502 17.9999 19.2502C18.3315 19.2502 18.6497 19.1189 18.8849 18.885C19.1175 18.6492 19.248 18.3313 19.248 18C19.248 17.6687 19.1175 17.3508 18.8849 17.115L11.7699 9.99999Z" fill="#C9563A"/>
</svg>
