<svg width="16" height="20" viewBox="0 0 16 20" fill="none" xmlns="http://www.w3.org/2000/svg">
  <path d="M15.65 7.38L8.9 0.38C8.78267 0.260161 8.64267 0.16485 8.48816 0.0996133C8.33365 0.0343763 8.16772 0.000515263 8 0L1.25 0C0.918479 0 0.600537 0.131696 0.366117 0.366117C0.131696 0.600537 0 0.918479 0 1.25V18.75C0 19.0815 0.131696 19.3995 0.366117 19.6339C0.600537 19.8683 0.918479 20 1.25 20H14.75C15.0815 20 15.3995 19.8683 15.6339 19.6339C15.8683 19.3995 16 19.0815 16 18.75V8.25C16.0001 7.92567 15.8747 7.61388 15.65 7.38ZM9 4.09L12.305 7.5H9V4.09ZM2.5 17.5V2.5H6.5V8.765C6.50395 9.09391 6.63738 9.40802 6.87138 9.6392C7.10537 9.87039 7.42106 10 7.75 10H13.5V17.5H2.5Z" fill="#1C3E57"/>
</svg>
