<svg width="20" height="20" viewBox="0 0 20 20" fill="none" xmlns="http://www.w3.org/2000/svg">
  <g clip-path="url(#clip0)">
    <path d="M10 10.9399C10.3315 10.9399 10.6495 10.8082 10.8839 10.5738C11.1183 10.3394 11.25 10.0215 11.25 9.68994L11.25 5.93994C11.25 5.60842 11.1183 5.29048 10.8839 5.05606C10.6495 4.82164 10.3315 4.68994 10 4.68994C9.66848 4.68994 9.35054 4.82164 9.11612 5.05606C8.8817 5.29048 8.75 5.60842 8.75 5.93994L8.75 9.68994C8.75 10.0215 8.8817 10.3394 9.11612 10.5738C9.35054 10.8082 9.66848 10.9399 10 10.9399Z" fill="white"/>
    <path d="M10 12.5C9.17157 12.5 8.5 13.1716 8.5 14C8.5 14.8284 9.17157 15.5 10 15.5C10.8284 15.5 11.5 14.8284 11.5 14C11.5 13.1716 10.8284 12.5 10 12.5Z" fill="white"/>
    <path d="M10 20C11.9778 20 13.9112 19.4135 15.5557 18.3147C17.2002 17.2159 18.4819 15.6541 19.2388 13.8268C19.9957 11.9996 20.1937 9.98891 19.8078 8.0491C19.422 6.10929 18.4696 4.32746 17.0711 2.92893C15.6725 1.5304 13.8907 0.577995 11.9509 0.192144C10.0111 -0.193709 8.00042 0.00432482 6.17316 0.761201C4.3459 1.51808 2.78412 2.7998 1.6853 4.44429C0.586488 6.08879 -2.76756e-06 8.02218 -2.94047e-06 10C-3.17233e-06 12.6522 1.05356 15.1957 2.92893 17.0711C4.80429 18.9464 7.34783 20 10 20V20ZM10 2.5C11.4834 2.5 12.9334 2.93986 14.1668 3.76397C15.4001 4.58809 16.3614 5.75943 16.9291 7.12987C17.4968 8.50032 17.6453 10.0083 17.3559 11.4632C17.0665 12.918 16.3522 14.2544 15.3033 15.3033C14.2544 16.3522 12.918 17.0665 11.4632 17.3559C10.0083 17.6453 8.50032 17.4968 7.12987 16.9291C5.75942 16.3614 4.58808 15.4001 3.76397 14.1668C2.93986 12.9334 2.5 11.4834 2.5 10C2.5 9.01508 2.69399 8.03981 3.0709 7.12987C3.44781 6.21993 4.00026 5.39314 4.6967 4.6967C5.39314 4.00026 6.21993 3.44781 7.12987 3.0709C8.03981 2.69399 9.01508 2.5 10 2.5Z" fill="white"/>
  </g>
  <defs>
    <clipPath id="clip0">
      <rect width="20" height="20" fill="white" transform="translate(20 20) rotate(-180)"/>
    </clipPath>
  </defs>
</svg>
