<svg width="135" height="29" viewBox="0 0 135 29" fill="none" xmlns="http://www.w3.org/2000/svg">
<path d="M11.164 28.3909C8.82234 28.3909 6.81889 28.0396 5.15368 27.3371C3.48848 26.6346 2.22656 25.7109 1.36794 24.5661C0.509321 23.4213 0.0539908 22.1724 0.00195312 20.8194C0.00195312 20.6112 0.0800097 20.4291 0.236123 20.273C0.392236 20.0909 0.587377 19.9998 0.821547 19.9998H4.37312C4.65933 19.9998 4.8935 20.0648 5.07563 20.1949C5.25776 20.325 5.42688 20.5072 5.583 20.7413C5.84318 21.626 6.42861 22.3675 7.33927 22.966C8.27595 23.5644 9.55087 23.8636 11.164 23.8636C12.9854 23.8636 14.3513 23.5644 15.262 22.966C16.1987 22.3415 16.667 21.4959 16.667 20.4291C16.667 19.7266 16.4329 19.1412 15.9645 18.6728C15.4962 18.2045 14.7807 17.8012 13.818 17.463C12.8813 17.0987 11.4763 16.6694 9.60291 16.175C6.53268 15.4465 4.28205 14.4838 2.85102 13.2869C1.41998 12.0901 0.704462 10.3728 0.704462 8.13521C0.704462 6.62612 1.12076 5.28615 1.95337 4.1153C2.78597 2.91843 3.96983 1.98175 5.50494 1.30526C7.06607 0.628773 8.87438 0.290527 10.9299 0.290527C13.0894 0.290527 14.9498 0.6678 16.5109 1.42235C18.0981 2.17689 19.2949 3.12658 20.1015 4.27141C20.9341 5.39022 21.3764 6.50903 21.4285 7.62784C21.4285 7.83599 21.3504 8.03113 21.1943 8.21327C21.0382 8.36938 20.8431 8.44743 20.6089 8.44743H16.9012C16.3288 8.44743 15.9385 8.21326 15.7303 7.74493C15.6003 6.91232 15.0929 6.22282 14.2082 5.67643C13.3236 5.10401 12.2308 4.81781 10.9299 4.81781C9.49883 4.81781 8.36701 5.091 7.53441 5.6374C6.72783 6.1838 6.32453 6.97737 6.32453 8.01812C6.32453 8.72063 6.53268 9.30606 6.94899 9.7744C7.36529 10.2427 8.01576 10.659 8.9004 11.0233C9.78504 11.3615 11.073 11.7518 12.7642 12.1941C15.0799 12.7145 16.9142 13.2999 18.2672 13.9504C19.6462 14.6009 20.6609 15.4205 21.3114 16.4092C21.9619 17.3979 22.2871 18.6598 22.2871 20.1949C22.2871 21.8862 21.8188 23.3562 20.8821 24.6051C19.9714 25.828 18.6705 26.7647 16.9792 27.4152C15.314 28.0656 13.3756 28.3909 11.164 28.3909Z" fill="#212123"/>
<path d="M28.6836 28.0006C28.4234 28.0006 28.2022 27.9095 28.0201 27.7274C27.838 27.5453 27.7469 27.3241 27.7469 27.0639V1.65652C27.7469 1.37031 27.825 1.13614 27.9811 0.954009C28.1632 0.771876 28.3974 0.680809 28.6836 0.680809H45.6609C45.9471 0.680809 46.1813 0.771876 46.3634 0.954009C46.5455 1.13614 46.6366 1.37031 46.6366 1.65652V4.46655C46.6366 4.72674 46.5455 4.9479 46.3634 5.13003C46.1813 5.31216 45.9471 5.40323 45.6609 5.40323H33.1718V12.7405H44.8803C45.1665 12.7405 45.4007 12.8316 45.5828 13.0137C45.765 13.1959 45.856 13.417 45.856 13.6772V16.4873C45.856 16.7474 45.765 16.9686 45.5828 17.1507C45.4007 17.3329 45.1665 17.4239 44.8803 17.4239H33.1718V27.0639C33.1718 27.3241 33.0808 27.5453 32.8986 27.7274C32.7165 27.9095 32.4823 28.0006 32.1961 28.0006H28.6836Z" fill="#212123"/>
<path d="M50.8613 28.0006C50.6011 28.0006 50.3929 27.9225 50.2368 27.7664C50.0807 27.6103 50.0027 27.4022 50.0027 27.142V25.2686C50.0027 25.0084 50.0807 24.8003 50.2368 24.6442C50.3929 24.462 50.6011 24.371 50.8613 24.371H52.7346C52.9948 24.371 53.203 24.462 53.3591 24.6442C53.5412 24.8003 53.6323 25.0084 53.6323 25.2686V27.142C53.6323 27.4022 53.5412 27.6103 53.3591 27.7664C53.203 27.9225 52.9948 28.0006 52.7346 28.0006H50.8613Z" fill="#212123"/>
<path d="M69.4887 28.3909C66.2364 28.3909 63.7126 27.4542 61.9173 25.5808C60.1219 23.7075 59.1723 21.1967 59.0682 18.0484C59.0422 17.2678 59.0292 16.0319 59.0292 14.3407C59.0292 12.6495 59.0422 11.4136 59.0682 10.633C59.1723 7.48474 60.1219 4.97392 61.9173 3.10056C63.7126 1.22721 66.2364 0.290527 69.4887 0.290527C71.7003 0.290527 73.5607 0.706829 75.0698 1.53943C76.5789 2.37204 77.6977 3.36075 78.4262 4.50558C79.1808 5.62439 79.584 6.62612 79.6361 7.51076V7.58881C79.6361 7.79696 79.558 7.96609 79.4019 8.09618C79.2458 8.22628 79.0507 8.29132 78.8165 8.29132H77.9579C77.7237 8.29132 77.5546 8.23928 77.4505 8.13521C77.3464 8.03113 77.2424 7.82298 77.1383 7.51076C76.696 6.13176 75.8373 4.97392 74.5624 4.03724C73.3135 3.10056 71.6223 2.63222 69.4887 2.63222C67.069 2.63222 65.1566 3.2957 63.7516 4.62266C62.3726 5.94963 61.631 8.01812 61.527 10.8282C61.5009 11.6087 61.4879 12.7796 61.4879 14.3407C61.4879 15.9018 61.5009 17.0727 61.527 17.8532C61.631 20.6633 62.3726 22.7318 63.7516 24.0587C65.1566 25.3857 67.069 26.0492 69.4887 26.0492C71.9085 26.0492 73.8599 25.3597 75.343 23.9807C76.826 22.6017 77.5676 20.5592 77.5676 17.8532V15.8628H70.7767C70.5165 15.8628 70.3083 15.7847 70.1522 15.6286C69.9961 15.4465 69.9181 15.2253 69.9181 14.9652V14.4188C69.9181 14.1586 69.9961 13.9504 70.1522 13.7943C70.3083 13.6122 70.5165 13.5211 70.7767 13.5211H79.1287C79.4149 13.5211 79.6361 13.5992 79.7922 13.7553C79.9483 13.9114 80.0264 14.1326 80.0264 14.4188V17.8532C80.0264 19.9348 79.6101 21.7691 78.7775 23.3562C77.9449 24.9434 76.735 26.1793 75.1478 27.0639C73.5607 27.9486 71.6743 28.3909 69.4887 28.3909Z" fill="#212123"/>
<path d="M96.3159 28.3909C89.6291 28.3909 86.1946 24.8003 86.0125 17.6191C85.9864 16.8385 85.9734 15.7457 85.9734 14.3407C85.9734 12.9357 85.9864 11.8429 86.0125 11.0623C86.1165 7.52377 87.0792 4.84382 88.9006 3.02251C90.7219 1.20119 93.1937 0.290527 96.3159 0.290527C99.4382 0.290527 101.91 1.20119 103.731 3.02251C105.553 4.84382 106.515 7.52377 106.619 11.0623C106.671 12.6235 106.697 13.7163 106.697 14.3407C106.697 14.9652 106.671 16.0579 106.619 17.6191C106.437 24.8003 103.003 28.3909 96.3159 28.3909ZM96.3159 26.0492C98.6576 26.0492 100.518 25.3467 101.897 23.9417C103.302 22.5106 104.057 20.338 104.161 17.4239C104.213 15.8628 104.239 14.8351 104.239 14.3407C104.239 13.8463 104.213 12.8186 104.161 11.2575C104.057 8.34336 103.302 6.1838 101.897 4.77878C100.492 3.34774 98.6316 2.63222 96.3159 2.63222C94.0002 2.63222 92.1399 3.34774 90.7349 4.77878C89.3299 6.1838 88.5753 8.34336 88.4712 11.2575C88.4452 12.038 88.4322 13.0658 88.4322 14.3407C88.4322 15.6156 88.4452 16.6434 88.4712 17.4239C88.5753 20.338 89.3169 22.5106 90.6959 23.9417C92.1009 25.3467 93.9742 26.0492 96.3159 26.0492Z" fill="#212123"/>
<path d="M122.472 28.0006C121.822 28.0006 121.379 27.6884 121.145 27.0639L112.091 1.89069L112.013 1.46138C112.013 1.25323 112.091 1.07109 112.247 0.914981C112.403 0.758867 112.585 0.680809 112.793 0.680809H113.613C113.847 0.680809 114.029 0.745857 114.159 0.875951C114.315 1.00605 114.419 1.13614 114.471 1.26623L123.019 25.1515L131.566 1.26623C131.618 1.13614 131.709 1.00605 131.839 0.875951C131.995 0.745857 132.19 0.680809 132.424 0.680809H133.244C133.452 0.680809 133.634 0.758867 133.79 0.914981C133.946 1.07109 134.024 1.25323 134.024 1.46138L133.946 1.89069L124.892 27.0639C124.658 27.6884 124.215 28.0006 123.565 28.0006H122.472Z" fill="#212123"/>
</svg>
