<?xml version="1.0" encoding="UTF-8"?>
<svg width="30px" height="30px" viewBox="0 0 30 30" version="1.1" xmlns="http://www.w3.org/2000/svg" xmlns:xlink="http://www.w3.org/1999/xlink">
    <!-- Generator: Sketch 50 (54983) - http://www.bohemiancoding.com/sketch -->
    <title>Icon/Translate</title>
    <desc>Created with Sketch.</desc>
    <defs></defs>
    <g id="Icon/Translate" stroke="none" stroke-width="1" fill="none" fill-rule="evenodd">
        <path d="M13.2600951,16.45 L16.5625,13.3159698 L16.5625,1.9 C16.5625,1.81715729 16.4953427,1.75 16.4125,1.75 L1.9,1.75 C1.81715729,1.75 1.75,1.81715729 1.75,1.9 L1.75,16.3 C1.75,16.3828427 1.81715729,16.45 1.9,16.45 L13.2600951,16.45 Z" id="Rectangle" stroke="#0071BC" stroke-width="1.5"></path>
        <rect id="Rectangle-Copy" stroke="#0071BC" stroke-width="1.5" x="13.4375" y="13.55" width="14.8125" height="14.7" rx="0.9"></rect>
        <polyline id="Path-2" stroke="#0876BF" stroke-width="1.35" stroke-linecap="round" stroke-linejoin="round" points="17.21875 25.4 20.84375 16.4 24.46875 25.4"></polyline>
        <path d="M18.125,23.6 L22.7649999,23.6" id="Line" stroke="#0876BF" stroke-width="1.35" stroke-linecap="square"></path>
        <g id="Group-2" transform="translate(4.625000, 4.600000)" stroke="#026FBE" stroke-linecap="round" stroke-width="1.35">
            <path d="M0,2.7 L9.0625,2.7" id="Stroke-1"></path>
            <path d="M4.53125,0 L4.53125,2.54117647" id="Stroke-3"></path>
            <path d="M6.83173077,9.37781982 C6.83173077,9.37781982 1.8125,5.42294162 1.8125,2.7" id="Stroke-6"></path>
            <path d="M2.265625,9.37781982 C2.265625,9.37781982 7.28485577,5.42294162 7.28485577,2.7" id="Stroke-8"></path>
        </g>
    </g>
</svg>