<?xml version="1.0" encoding="UTF-8"?>
<svg width="30px" height="30px" viewBox="0 0 30 30" version="1.1" xmlns="http://www.w3.org/2000/svg" xmlns:xlink="http://www.w3.org/1999/xlink">
    <!-- Generator: Sketch 50 (54983) - http://www.bohemiancoding.com/sketch -->
    <title>Icon/Translate</title>
    <desc>Created with Sketch.</desc>
    <defs></defs>
    <g id="Icon/Translate" stroke="none" stroke-width="1" fill="none" fill-rule="evenodd">
        <path d="M2.5,15.7 L2.5,2.5 L15.8125,2.5 L15.8125,13.6381836 L17.3125,13.6381836 L17.3125,1.9 C17.3125,1.40294373 16.9095563,1 16.4125,1 L1.9,1 C1.40294373,1 1,1.40294373 1,1.9 L1,16.3 C1,16.7970563 1.40294373,17.2 1.9,17.2 L13.5593262,17.2 L13.5593262,15.7 L2.5,15.7 Z M15.8125,2.5 L15.8125,13.6381836 L17.3125,13.6381836 L17.3125,1.9 C17.3125,1.40294373 16.9095563,1 16.4125,1 L1.9,1 C1.40294373,1 1,1.40294373 1,1.9 L1,16.3 C1,16.7970563 1.40294373,17.2 1.9,17.2 L13.5593262,17.2 L13.5593262,15.7 L2.5,15.7 L2.5,2.5 L15.8125,2.5 Z" id="Rectangle" fill="#0071BC" fill-rule="nonzero"></path>
        <rect id="Rectangle-Copy" stroke="#0071BC" stroke-width="1.5" x="13.75" y="13.75" width="14.8125" height="14.7" rx="0.9"></rect>
        <g id="Group" transform="translate(17.500000, 16.500000)" stroke="#0876BF" stroke-width="1.35">
            <polyline id="Path-2" stroke-linecap="round" stroke-linejoin="round" points="0 9 3.625 0 7.25 9"></polyline>
            <path d="M1.97808793,6.9 L5.6399999,6.9" id="Line" stroke-linecap="square"></path>
        </g>
        <g id="Group-2" transform="translate(4.500000, 4.000000)" stroke="#026FBE" stroke-linecap="round" stroke-width="1.35">
            <path d="M0,2.7 L9.0625,2.7" id="Stroke-1"></path>
            <path d="M4.53125,0 L4.53125,2.54117647" id="Stroke-3"></path>
            <path d="M6.83173077,9.37781982 C6.83173077,9.37781982 1.8125,5.42294162 1.8125,2.7" id="Stroke-6"></path>
            <path d="M2.265625,9.37781982 C2.265625,9.37781982 7.28485577,5.42294162 7.28485577,2.7" id="Stroke-8"></path>
        </g>
    </g>
</svg>