<svg width="26" height="26" viewBox="0 0 26 26" fill="none" xmlns="http://www.w3.org/2000/svg">
  <path d="M15.3008 13L24.5503 3.75051C24.8555 3.44538 25.0269 3.03154 25.0269 2.60001C25.0269 2.16849 24.8555 1.75465 24.5503 1.44951C24.2452 1.14438 23.8314 0.972961 23.3998 0.972961C22.9683 0.972961 22.5545 1.14438 22.2493 1.44951L12.9998 10.699L3.75033 1.44951C3.4452 1.14438 3.03135 0.972961 2.59983 0.972961C2.16831 0.972961 1.75446 1.14438 1.44933 1.44951C1.1442 1.75465 0.972778 2.16849 0.972778 2.60001C0.972778 3.03154 1.1442 3.44538 1.44933 3.75051L10.6988 13L1.44933 22.2495C1.14685 22.556 0.977261 22.9694 0.977261 23.4C0.977261 23.8307 1.14685 24.244 1.44933 24.5505C1.75504 24.8546 2.16867 25.0252 2.59983 25.0252C3.03099 25.0252 3.44462 24.8546 3.75033 24.5505L12.9998 15.301L22.2493 24.5505C22.555 24.8546 22.9687 25.0252 23.3998 25.0252C23.831 25.0252 24.2446 24.8546 24.5503 24.5505C24.8528 24.244 25.0224 23.8307 25.0224 23.4C25.0224 22.9694 24.8528 22.556 24.5503 22.2495L15.3008 13Z" fill="white"/>
</svg>
