<svg width="16" height="20" fill="none" xmlns="http://www.w3.org/2000/svg"><path d="M7.698 0C3.458 0 0 3.458 0 7.698c0 4.768 5.914 10.791 7.37 12.156a.467.467 0 0 0 .328.128c.11 0 .236-.037.327-.128 1.475-1.364 7.37-7.388 7.37-12.156C15.415 3.458 11.957 0 7.699 0zm0 2.493c2.875 0 5.223 2.33 5.223 5.205 0 2.566-2.803 6.387-5.205 8.972-2.42-2.585-5.223-6.406-5.223-8.972a5.204 5.204 0 0 1 5.205-5.205z" fill="#1C3D57"/><path d="M7.698 5.787a1.91 1.91 0 1 0 1.91 1.911c.019-1.037-.836-1.91-1.91-1.91z" fill="#1C3D57"/></svg>