<svg width="20" height="17" fill="none" xmlns="http://www.w3.org/2000/svg"><path d="M18.94 0H1.06A1.06 1.06 0 0 0 0 1.06v14.648c0 .584.475 1.06 1.06 1.06h17.88a1.06 1.06 0 0 0 1.06-1.06V1.059A1.06 1.06 0 0 0 18.94 0zm-1.442 14.265H2.502V2.502h14.996v11.763z" fill="#1C3D57"/><path d="M10.027 10.977c-.401 0-.785-.146-1.096-.402L.493 4.201a1.252 1.252 0 0 1-.237-1.754 1.239 1.239 0 0 1 1.753-.255l8.018 6.064 7.964-6.064a1.252 1.252 0 0 1 1.516 1.99l-8.384 6.375a1.61 1.61 0 0 1-1.096.42z" fill="#1C3D57"/></svg>