<svg width="20" height="20" fill="none" xmlns="http://www.w3.org/2000/svg"><path d="M4.768 0L1.937 2.85a6.581 6.581 0 0 0 0 9.314l5.9 5.9A6.601 6.601 0 0 0 12.493 20a6.53 6.53 0 0 0 4.658-1.936L20 15.214l-5.06-5.059-2.392 2.393-5.096-5.096L9.846 5.06 4.768 0zm0 3.416l1.644 1.643-.676.676c-.95.95-.95 2.484 0 3.416l5.096 5.096a2.42 2.42 0 0 0 1.717.712 2.42 2.42 0 0 0 1.717-.712l.675-.676 1.644 1.644-1.132 1.132a4.174 4.174 0 0 1-2.959 1.224 4.206 4.206 0 0 1-2.959-1.224l-5.9-5.9a4.178 4.178 0 0 1 0-5.899l1.133-1.132z" fill="#1C3E57"/></svg>