<svg id="Layer_1" data-name="Layer 1" xmlns="http://www.w3.org/2000/svg" viewBox="0 0 484.34 215.71"><defs><style>.cls-1{fill:#c6c3c2;}.cls-2{fill:#009cde;}</style></defs><title>140801 - XTM international logo</title><path class="cls-1" d="M309.91,24.63a18.5,18.5,0,0,1-18.5,18.5H259.29v82.13a18.5,18.5,0,1,1-37,0V43.13H190.17a18.5,18.5,0,0,1,0-37H291.41A18.5,18.5,0,0,1,309.91,24.63ZM142.17,143.76a18.5,18.5,0,0,0,13.08-31.58L117.72,74.65l37.54-37.54a18.5,18.5,0,1,0-26.16-26.16L78.47,61.56a18.5,18.5,0,0,0,0,26.16l50.62,50.62a18.44,18.44,0,0,0,13.08,5.42ZM450.31,5.53a56.24,56.24,0,0,0-38,14.7A56.44,56.44,0,0,0,317.91,62v63.27a18.5,18.5,0,1,0,37,0V62a19.46,19.46,0,1,1,38.93,0v63.27a18.5,18.5,0,1,0,37,0V62a19.46,19.46,0,1,1,38.93,0v63.27a18.5,18.5,0,1,0,37,0V62A56.53,56.53,0,0,0,450.31,5.53Z" transform="translate(-22.43 -5.53)"/><path class="cls-2" d="M136.9,175.82h9.8v44.55h-9.8Z" transform="translate(-22.43 -5.53)"/><path class="cls-2" d="M154.37,188.11h8.42v4.49H163a11.51,11.51,0,0,1,9.86-5.37c9.42,0,11.79,5.3,11.79,13.29v19.84h-8.86V202.15c0-5.3-1.56-7.92-5.68-7.92-4.8,0-6.86,2.68-6.86,9.23v16.91h-8.86Z" transform="translate(-22.43 -5.53)"/><path class="cls-2" d="M202.6,188.11h6.49V194H202.6v16c0,3,.75,3.75,3.74,3.75a13.67,13.67,0,0,0,2.75-.25v6.92a34.05,34.05,0,0,1-5.18.31c-5.43,0-10.17-1.25-10.17-7.67V194h-5.37v-5.93h5.37v-9.67h8.86Z" transform="translate(-22.43 -5.53)"/><path class="cls-2" d="M220.63,206.39c.25,5.62,3,8.17,7.92,8.17,3.56,0,6.43-2.18,7-4.18h7.8c-2.5,7.61-7.8,10.86-15.1,10.86-10.17,0-16.47-7-16.47-17,0-9.67,6.68-17,16.47-17,11,0,16.28,9.24,15.66,19.16ZM235,200.78c-.81-4.49-2.75-6.86-7.05-6.86a7,7,0,0,0-7.36,6.86Z" transform="translate(-22.43 -5.53)"/><path class="cls-2" d="M249.14,188.11h8.42v6h.13A11.41,11.41,0,0,1,268,187.24a6.6,6.6,0,0,1,1.93.31v8.24a16.16,16.16,0,0,0-3.18-.31c-6.49,0-8.73,4.68-8.73,10.36v14.54h-8.86Z" transform="translate(-22.43 -5.53)"/><path class="cls-2" d="M274.52,188.11h8.42v4.49h.19a11.51,11.51,0,0,1,9.86-5.37c9.42,0,11.79,5.3,11.79,13.29v19.84h-8.86V202.15c0-5.3-1.56-7.92-5.68-7.92-4.8,0-6.86,2.68-6.86,9.23v16.91h-8.86Z" transform="translate(-22.43 -5.53)"/><path class="cls-2" d="M311.14,198c.5-8.3,7.92-10.79,15.16-10.79,6.43,0,14.16,1.44,14.16,9.17v16.78c0,2.93.31,5.87,1.12,7.17h-9a13.19,13.19,0,0,1-.62-3.12c-2.81,2.93-6.93,4-10.86,4-6.11,0-11-3.06-11-9.67,0-7.3,5.49-9,11-9.79s10.48-.62,10.48-4.24c0-3.81-2.62-4.37-5.74-4.37-3.37,0-5.55,1.37-5.87,4.87Zm20.46,6.55c-1.5,1.31-4.62,1.37-7.36,1.87S319,208,319,211.2s2.56,4.12,5.43,4.12c6.93,0,7.18-5.49,7.18-7.42Z" transform="translate(-22.43 -5.53)"/><path class="cls-2" d="M358.56,188.11H365V194h-6.49v16c0,3,.75,3.75,3.74,3.75a13.67,13.67,0,0,0,2.75-.25v6.92a34.05,34.05,0,0,1-5.18.31c-5.43,0-10.17-1.25-10.17-7.67V194h-5.37v-5.93h5.37v-9.67h8.86Z" transform="translate(-22.43 -5.53)"/><path class="cls-2" d="M378.4,183.12h-8.86v-7.3h8.86Zm-8.86,5h8.86v32.26h-8.86Z" transform="translate(-22.43 -5.53)"/><path class="cls-2" d="M401,187.24c10.17,0,16.72,6.74,16.72,17s-6.55,17-16.72,17-16.66-6.74-16.66-17S390.94,187.24,401,187.24Zm0,27.33c6.05,0,7.86-5.18,7.86-10.29s-1.81-10.36-7.86-10.36-7.8,5.18-7.8,10.36S395.05,214.56,401,214.56Z" transform="translate(-22.43 -5.53)"/><path class="cls-2" d="M423.5,188.11h8.42v4.49h.19a11.5,11.5,0,0,1,9.86-5.37c9.42,0,11.79,5.3,11.79,13.29v19.84H444.9V202.15c0-5.3-1.56-7.92-5.68-7.92-4.8,0-6.86,2.68-6.86,9.23v16.91H423.5Z" transform="translate(-22.43 -5.53)"/><path class="cls-2" d="M460.13,198c.5-8.3,7.92-10.79,15.16-10.79,6.43,0,14.16,1.44,14.16,9.17v16.78c0,2.93.31,5.87,1.12,7.17h-9a13.19,13.19,0,0,1-.62-3.12c-2.81,2.93-6.93,4-10.86,4-6.11,0-11-3.06-11-9.67,0-7.3,5.49-9,11-9.79s10.48-.62,10.48-4.24c0-3.81-2.62-4.37-5.74-4.37-3.37,0-5.55,1.37-5.87,4.87Zm20.46,6.55c-1.5,1.31-4.62,1.37-7.36,1.87S468,208,468,211.2s2.56,4.12,5.43,4.12c6.93,0,7.18-5.49,7.18-7.42Z" transform="translate(-22.43 -5.53)"/><path class="cls-2" d="M496.56,175.82h8.86v44.55h-8.86Z" transform="translate(-22.43 -5.53)"/><path class="cls-2" d="M117.72,74.65,54,10.95A18.5,18.5,0,0,0,27.85,37.11L65.39,74.65,27.85,112.18a18.5,18.5,0,0,0,13.08,31.58h0A18.43,18.43,0,0,0,54,138.35l50.62-50.62Z" transform="translate(-22.43 -5.53)"/></svg>