<svg id="Layer_1" data-name="Layer 1" xmlns="http://www.w3.org/2000/svg" viewBox="0 0 40 40"><title>globe_1-outlined</title><path d="M20,0A20,20,0,1,0,40,20,20,20,0,0,0,20,0ZM34.85,18H30.63A22.55,22.55,0,0,0,27,6.75,15,15,0,0,1,34.85,18ZM18,6.86V18H13.39C13.84,12.43,15.89,9,18,6.86ZM18,22V33.64c-2.17-2.18-4.3-5.77-4.65-11.64Zm4,11.64V22h4.65C26.3,27.87,24.17,31.46,22,33.64ZM22,18V6.86C24.11,9,26.16,12.43,26.61,18ZM13,6.75A22.55,22.55,0,0,0,9.37,18H5.15A15,15,0,0,1,13,6.75ZM5.15,22H9.36a23.3,23.3,0,0,0,3.13,11A15.05,15.05,0,0,1,5.15,22ZM27.51,33a23.3,23.3,0,0,0,3.13-11h4.21A15.05,15.05,0,0,1,27.51,33Z" style="fill:#4F66EE"/></svg>