<?xml version="1.0" encoding="UTF-8"?>
<svg width="30px" height="30px" viewBox="0 0 30 30" version="1.1" xmlns="http://www.w3.org/2000/svg" xmlns:xlink="http://www.w3.org/1999/xlink">
    <!-- Generator: Sketch 50 (54983) - http://www.bohemiancoding.com/sketch -->
    <title>Icon/Phone</title>
    <desc>Created with Sketch.</desc>
    <defs></defs>
    <g id="Icon/Phone" stroke="none" stroke-width="1" fill="none" fill-rule="evenodd" stroke-linejoin="round">
        <path d="M13.5840774,22.2090774 C4.20907736,22.2090774 -1.41592264,18.4590774 -1.41592264,16.1818899 L-1.41592264,12.2997024 C-1.41592264,11.5590774 -0.815922638,10.9590774 -0.076235138,10.9590774 L6.61845236,10.9590774 C7.35907736,10.9590774 7.95907736,11.5590774 7.95907736,12.2997024 L7.95907736,16.1818899 C7.95907736,16.1818899 8.89657736,17.5215774 13.5840774,17.5215774 C18.2715774,17.5215774 19.2090774,16.1809524 19.2090774,16.1809524 L19.2090774,12.2997024 C19.2090774,11.5590774 19.8090774,10.9590774 20.5497024,10.9590774 L27.2434524,10.9590774 C27.9840774,10.9590774 28.5840774,11.5590774 28.5840774,12.2997024 L28.5840774,16.1809524 C28.5840774,18.4590774 22.9590774,22.2090774 13.5840774,22.2090774 Z" id="Stroke-1" stroke="#757575" stroke-width="2" transform="translate(13.584077, 16.584077) rotate(-315.000000) translate(-13.584077, -16.584077) "></path>
    </g>
</svg>
