<svg width="21" height="20" viewBox="0 0 21 20" fill="none" xmlns="http://www.w3.org/2000/svg">
<path d="M10.7197 19C15.6903 19 19.7197 14.9706 19.7197 10C19.7197 5.02944 15.6903 1 10.7197 1C5.74916 1 1.71973 5.02944 1.71973 10C1.71973 14.9706 5.74916 19 10.7197 19Z" stroke="#4F66EE" stroke-width="2" stroke-miterlimit="10"/>
<path d="M9.95044 19C9.95044 19 5.95044 15 5.95044 10C5.95044 5 9.95044 1 9.95044 1" stroke="#4F66EE" stroke-width="2" stroke-miterlimit="10"/>
<path d="M11.489 19C11.489 19 15.489 15 15.489 10C15.489 5 11.489 1 11.489 1" stroke="#4F66EE" stroke-width="2" stroke-miterlimit="10"/>
<path d="M10.7197 1V19" stroke="#4F66EE" stroke-width="2" stroke-miterlimit="10"/>
<path d="M19.7197 10H1.71973" stroke="#4F66EE" stroke-width="2" stroke-miterlimit="10"/>
</svg>
