<svg width="20" height="20" viewBox="0 0 20 20" fill="none" xmlns="http://www.w3.org/2000/svg">
<path d="M10 4C11.1046 4 12 3.10457 12 2C12 0.89543 11.1046 0 10 0C8.89543 0 8 0.89543 8 2C8 3.10457 8.89543 4 10 4Z" fill="#607889"/>
<path d="M17 5.5H3C2.66848 5.5 2.35054 5.6317 2.11612 5.86612C1.8817 6.10054 1.75 6.41848 1.75 6.75C1.75 7.08152 1.8817 7.39946 2.11612 7.63388C2.35054 7.8683 2.66848 8 3 8H8V10.62L5.785 18.23C5.69217 18.5483 5.72958 18.8904 5.88898 19.181C6.04839 19.4717 6.31674 19.6872 6.635 19.78C6.74859 19.8137 6.86651 19.8306 6.985 19.83C7.25526 19.8292 7.51804 19.7412 7.73425 19.579C7.95047 19.4168 8.10855 19.1892 8.185 18.93L10 12.695L11.815 18.93C11.8914 19.1892 12.0495 19.4168 12.2657 19.579C12.482 19.7412 12.7447 19.8292 13.015 19.83C13.1335 19.8306 13.2514 19.8137 13.365 19.78C13.6833 19.6872 13.9516 19.4717 14.111 19.181C14.2704 18.8904 14.3078 18.5483 14.215 18.23L12 10.62V8H17C17.3315 8 17.6495 7.8683 17.8839 7.63388C18.1183 7.39946 18.25 7.08152 18.25 6.75C18.25 6.41848 18.1183 6.10054 17.8839 5.86612C17.6495 5.6317 17.3315 5.5 17 5.5Z" fill="#607889"/>
</svg>
