<svg width="21" height="16" viewBox="0 0 21 16" fill="none" xmlns="http://www.w3.org/2000/svg">
<path d="M6.75015 15.755C6.58585 15.7555 6.42306 15.7236 6.27117 15.6609C6.11927 15.5983 5.98128 15.5062 5.86515 15.39L1.36515 10.89C1.24594 10.7745 1.15092 10.6364 1.08563 10.4838C1.02034 10.3312 0.986099 10.1672 0.984896 10.0012C0.983693 9.83523 1.01556 9.67069 1.07862 9.51716C1.14169 9.36364 1.2347 9.22421 1.35223 9.10701C1.46976 8.98982 1.60945 8.8972 1.76315 8.83457C1.91685 8.77193 2.08149 8.74054 2.24746 8.74221C2.41342 8.74388 2.57739 8.77859 2.7298 8.84431C2.88221 8.91002 3.02001 9.00544 3.13515 9.12498L6.75015 12.74L18.8702 0.619976C19.1062 0.39259 19.4222 0.267025 19.7499 0.270327C20.0777 0.273629 20.391 0.405535 20.6225 0.637631C20.8539 0.869728 20.9849 1.18344 20.9873 1.51121C20.9897 1.83897 20.8632 2.15455 20.6352 2.38998L7.63515 15.39C7.51902 15.5062 7.38103 15.5983 7.22914 15.6609C7.07724 15.7236 6.91445 15.7555 6.75015 15.755Z" fill="white"/>
</svg>
