<?xml version="1.0" encoding="UTF-8"?>
<svg width="30px" height="30px" viewBox="0 0 30 30" version="1.1" xmlns="http://www.w3.org/2000/svg" xmlns:xlink="http://www.w3.org/1999/xlink">
    <!-- Generator: Sketch 50 (54983) - http://www.bohemiancoding.com/sketch -->
    <title>Icon/Department</title>
    <desc>Created with Sketch.</desc>
    <defs></defs>
    <g id="Icon/Department" stroke="none" stroke-width="1" fill="none" fill-rule="evenodd">
        <g id="Group" transform="translate(5.000000, 2.000000)" fill="#000000">
            <path d="M18.1416,0 L1.8586,0 C0.8316,0 -0.0004,0.832 -0.0004,1.858 L-0.0004,7 L-0.0004,11.142 L-0.0004,26 L19.9996,26 L19.9996,11.142 L19.9996,7 L19.9996,1.858 C19.9996,0.832 19.1676,0 18.1416,0 M17.9996,2 L17.9996,7 L17.9996,11.142 L17.9996,24 L1.9996,24 L1.9996,11.142 L1.9996,7 L1.9996,2 L17.9996,2" id="Fill-1"></path>
            <polygon id="Fill-4" points="4 6 9 6 9 4 4 4"></polygon>
            <polygon id="Fill-6" points="11 6 16 6 16 4 11 4"></polygon>
            <polygon id="Fill-7" points="4 10 9 10 9 8 4 8"></polygon>
            <polygon id="Fill-8" points="11 10 16 10 16 8 11 8"></polygon>
            <polygon id="Fill-9" points="4 14 9 14 9 12 4 12"></polygon>
            <polygon id="Fill-10" points="11 14 16 14 16 12 11 12"></polygon>
            <polygon id="Fill-11" points="4 18 9 18 9 16 4 16"></polygon>
            <polygon id="Fill-12" points="8 26 12 26 12 20 8 20"></polygon>
            <polygon id="Fill-13" points="11 18 16 18 16 16 11 16"></polygon>
        </g>
    </g>
</svg>