<svg viewBox="0 0 21 23" fill="none" xmlns="http://www.w3.org/2000/svg">
<path d="M17.4215 0.0229492H3.30686C1.48053 0.0229492 0 1.59431 0 3.53269V18.5132C0 20.4516 1.48053 22.023 3.30686 22.023H17.4215C19.2478 22.023 20.7283 20.4516 20.7283 18.5132V3.53269C20.7283 1.59431 19.2478 0.0229492 17.4215 0.0229492Z" fill="white"/>
<path fill-rule="evenodd" clip-rule="evenodd" d="M8.42207 19.3249H11.2476V12.4071H13.3347L13.752 9.61258H11.2476V7.4996C11.2476 6.71738 11.9542 6.27298 12.6295 6.27298H13.8497V3.95565L11.6663 3.85347C9.57917 3.71707 8.42299 5.45507 8.42299 7.53383V9.61258H6.04614V12.4071H8.42207V19.3249Z" fill="#0C1464"/>
</svg>
