<svg width="22" height="22" viewBox="0 0 22 22" fill="none" xmlns="http://www.w3.org/2000/svg">
<path d="M0 19.9301C0 21.0538 0.916667 22 2.06989 22H19.9301C21.0833 22 22 21.0833 22 19.9301V2.06989C22 0.946237 21.0833 0 19.9301 0H2.06989C0.916667 0 0 0.916667 0 2.06989V19.9301Z" fill="#3B5998"/>
<path d="M8.33875 9.1371H9.4624V8.04301C9.4624 7.56989 9.4624 6.80107 9.81724 6.32796C10.2016 5.82527 10.7043 5.5 11.5914 5.5C13.0108 5.5 13.6318 5.70699 13.6318 5.70699L13.3361 7.39247C13.3361 7.39247 12.8629 7.24462 12.4194 7.24462C11.9758 7.24462 11.5914 7.39247 11.5914 7.83602V9.10753H13.3952L13.3065 10.7634H11.621V16.4704H9.49197V10.7634H8.36831V9.1371H8.33875Z" fill="white"/>
</svg>
