<svg width="22" height="22" viewBox="0 0 22 22" fill="none" xmlns="http://www.w3.org/2000/svg">
<path d="M20 0H2C0.895431 0 0 0.89543 0 2V20C0 21.1046 0.89543 22 2 22H20C21.1046 22 22 21.1046 22 20V2C22 0.895431 21.1046 0 20 0Z" fill="url(#paint0_radial)"/>
<path d="M11.0142 6.50581C12.4695 6.50581 12.6407 6.50581 13.2114 6.53435C13.7535 6.56288 14.0389 6.64848 14.2386 6.73409C14.4954 6.81969 14.6666 6.96236 14.8664 7.13357C15.0661 7.33331 15.1803 7.50452 15.2659 7.76133C15.3515 7.96107 15.4371 8.24641 15.4656 8.78856C15.4941 9.35925 15.4941 9.53046 15.4941 10.9857C15.4941 12.441 15.4941 12.6122 15.4656 13.1829C15.4371 13.725 15.3515 14.0104 15.2659 14.2101C15.1803 14.4669 15.0376 14.6381 14.8664 14.8378C14.6666 15.0376 14.4954 15.1517 14.2386 15.2373C14.0389 15.3229 13.7535 15.4085 13.2114 15.4371C12.6407 15.4656 12.4695 15.4656 11.0142 15.4656C9.55899 15.4656 9.38778 15.4656 8.8171 15.4371C8.27494 15.4085 7.9896 15.3229 7.78986 15.2373C7.53305 15.1517 7.36184 15.0091 7.1621 14.8378C6.96236 14.6381 6.84823 14.4669 6.76262 14.2101C6.67702 14.0104 6.59142 13.725 6.56288 13.1829C6.53435 12.6122 6.53435 12.441 6.53435 10.9857C6.53435 9.53046 6.53435 9.35925 6.56288 8.78856C6.59142 8.24641 6.67702 7.96107 6.76262 7.76133C6.84823 7.50452 6.9909 7.33331 7.1621 7.13357C7.36184 6.93383 7.53305 6.81969 7.78986 6.73409C7.9896 6.64848 8.27494 6.56288 8.8171 6.53435C9.35925 6.53435 9.53045 6.50581 11.0142 6.50581ZM11.0142 5.53564C9.53045 5.53564 9.33071 5.53564 8.76003 5.56418C8.18934 5.59271 7.78986 5.67832 7.41891 5.82099C7.04797 5.96366 6.76262 6.13487 6.44874 6.44874C6.13487 6.76262 5.96366 7.04797 5.82099 7.41891C5.67832 7.76132 5.59271 8.16081 5.56418 8.76003C5.53564 9.33071 5.53564 9.53045 5.53564 11.0142C5.53564 12.498 5.53564 12.6978 5.56418 13.2685C5.59271 13.8391 5.67832 14.2386 5.82099 14.6096C5.96366 14.9805 6.13487 15.2659 6.44874 15.5797C6.76262 15.8936 7.04797 16.0648 7.41891 16.2075C7.76132 16.3502 8.16081 16.4358 8.76003 16.4643C9.33071 16.4928 9.53045 16.4928 11.0142 16.4928C12.498 16.4928 12.6978 16.4928 13.2685 16.4643C13.8391 16.4358 14.2386 16.3502 14.6096 16.2075C14.9805 16.0648 15.2659 15.8936 15.5797 15.5797C15.8936 15.2659 16.0648 14.9805 16.2075 14.6096C16.3502 14.2672 16.4358 13.8677 16.4643 13.2685C16.4928 12.6978 16.4928 12.498 16.4928 11.0142C16.4928 9.53045 16.4928 9.33071 16.4643 8.76003C16.4358 8.18934 16.3502 7.78986 16.2075 7.41891C16.0648 7.04797 15.8936 6.76262 15.5797 6.44874C15.2659 6.13487 14.9805 5.96366 14.6096 5.82099C14.2672 5.67832 13.8677 5.59271 13.2685 5.56418C12.6692 5.53564 12.498 5.53564 11.0142 5.53564Z" fill="white"/>
<path d="M11.0146 8.18945C9.47377 8.18945 8.21826 9.44497 8.21826 10.9858C8.21826 12.5267 9.47377 13.7822 11.0146 13.7822C12.5555 13.7822 13.811 12.5267 13.811 10.9858C13.811 9.44497 12.5555 8.18945 11.0146 8.18945ZM11.0146 12.812C10.0159 12.812 9.18843 11.9845 9.18843 10.9858C9.18843 9.98712 10.0159 9.15962 11.0146 9.15962C12.0133 9.15962 12.8408 9.98712 12.8408 10.9858C12.8123 12.0131 12.0133 12.812 11.0146 12.812Z" fill="white"/>
<path d="M13.9244 8.73153C14.2868 8.73153 14.5806 8.43769 14.5806 8.07524C14.5806 7.71278 14.2868 7.41895 13.9244 7.41895C13.5619 7.41895 13.2681 7.71278 13.2681 8.07524C13.2681 8.43769 13.5619 8.73153 13.9244 8.73153Z" fill="white"/>
<defs>
<radialGradient id="paint0_radial" cx="0" cy="0" r="1" gradientUnits="userSpaceOnUse" gradientTransform="translate(0.936384 23.4126) scale(29.0023)">
<stop stop-color="#FCCC63"/>
<stop offset="0.0810739" stop-color="#FBB655"/>
<stop offset="0.1346" stop-color="#FBAD50"/>
<stop offset="0.3169" stop-color="#E95950"/>
<stop offset="0.418" stop-color="#DC515D"/>
<stop offset="0.5045" stop-color="#CD486B"/>
<stop offset="0.6606" stop-color="#BC2A8D"/>
<stop offset="0.7451" stop-color="#A631A0"/>
<stop offset="0.8706" stop-color="#8A3AB9"/>
<stop offset="1" stop-color="#4C68D7"/>
</radialGradient>
</defs>
</svg>
