<svg width="21" height="23" viewBox="0 0 21 23" fill="none" xmlns="http://www.w3.org/2000/svg">
<path d="M17.4215 0.0458984H3.30686C1.48053 0.0458984 0 1.61726 0 3.55564V18.5362C0 20.4746 1.48053 22.0459 3.30686 22.0459H17.4215C19.2478 22.0459 20.7283 20.4746 20.7283 18.5362V3.55564C20.7283 1.61726 19.2478 0.0458984 17.4215 0.0458984Z" fill="white"/>
<path fill-rule="evenodd" clip-rule="evenodd" d="M7.32407 4.0509H13.4177C15.3745 4.0509 16.9849 5.76201 16.9849 7.83686V14.2696C16.9849 16.3469 15.3726 18.0556 13.4177 18.0556H7.32407C5.36686 18.0556 3.75696 16.3445 3.75696 14.2696V7.83686C3.75696 5.75957 5.36916 4.0509 7.32407 4.0509ZM13.9217 6.49535C14.1217 6.49813 14.3129 6.58369 14.4544 6.7338C14.5959 6.88392 14.6767 7.08674 14.6794 7.29908C14.6767 7.51147 14.5959 7.71434 14.4544 7.86453C14.3129 8.01473 14.1218 8.10039 13.9217 8.1033C13.8218 8.10468 13.7227 8.08482 13.6302 8.04489C13.5376 8.00497 13.4536 7.94578 13.383 7.87082C13.3123 7.79587 13.2566 7.70666 13.219 7.60846C13.1813 7.51027 13.1626 7.40507 13.1639 7.29908C13.1626 7.19311 13.1813 7.08793 13.219 6.98976C13.2566 6.89159 13.3124 6.80242 13.383 6.7275C13.4536 6.65259 13.5377 6.59344 13.6302 6.55357C13.7227 6.5137 13.8218 6.4939 13.9217 6.49535ZM10.3546 7.2321H10.3863C12.3431 7.2321 13.9848 8.9745 13.9848 11.0518C13.9848 13.1623 12.3431 14.871 10.3863 14.871H10.3546C8.39734 14.871 6.78744 13.1623 6.78744 11.0518C6.78744 8.9745 8.39734 7.2321 10.3546 7.2321ZM10.3546 8.5389H10.3863C11.6802 8.5389 12.7535 9.67801 12.7535 11.0518C12.7535 12.4588 11.6802 13.5979 10.3863 13.5979H10.3546C9.06018 13.5979 7.98692 12.4588 7.98692 11.0518C7.98692 9.67801 9.06018 8.5389 10.3546 8.5389ZM7.35585 5.25552H13.386C14.0387 5.25643 14.6644 5.53203 15.126 6.02189C15.5875 6.51174 15.8472 7.17587 15.848 7.86863V14.2359C15.8473 14.9288 15.5877 15.593 15.1261 16.083C14.6646 16.5729 14.0388 16.8486 13.386 16.8495H7.35678C6.70394 16.8486 6.07808 16.573 5.61645 16.083C5.15482 15.5931 4.89511 14.9288 4.89425 14.2359V7.8701C4.89523 7.17729 5.155 6.51317 5.61661 6.02332C6.07823 5.53348 6.70402 5.2579 7.35678 5.25699L7.35585 5.25552Z" fill="#0C1464"/>
</svg>
