<svg width="20" height="17" viewBox="0 0 20 17" fill="none" xmlns="http://www.w3.org/2000/svg">
<path d="M18.9406 0H1.05936C0.474886 0 0 0.474886 0 1.05936V15.7078C0 16.2922 0.474886 16.7671 1.05936 16.7671H18.9406C19.5251 16.7671 20 16.2922 20 15.7078V1.05936C20 0.474886 19.5251 0 18.9406 0ZM17.4977 14.2648H2.50228V2.50228H17.4977V14.2648Z" fill="#1C3D57"/>
<path d="M10.0274 10.9771C9.62554 10.9771 9.24198 10.831 8.93148 10.5752L0.49312 4.20081C-0.0548254 3.78072 -0.164414 2.99533 0.255677 2.44739C0.675768 1.88118 1.46116 1.77159 2.0091 2.19168L10.0274 8.25561L17.9908 2.19168C18.5388 1.77159 19.3242 1.88118 19.7443 2.42912C20.1644 2.97707 20.0548 3.76246 19.5068 4.18255L11.1233 10.557C10.831 10.831 10.4292 10.9771 10.0274 10.9771Z" fill="#1C3D57"/>
</svg>
