<?xml version="1.0" encoding="UTF-8"?>
<svg width="21px" height="22px" viewBox="0 0 21 22" version="1.1" xmlns="http://www.w3.org/2000/svg" xmlns:xlink="http://www.w3.org/1999/xlink">
    <title>mastadon-white-bg 2</title>
    <g id="Page-1" stroke="none" stroke-width="1" fill="none" fill-rule="evenodd">
        <g id="mastadon-white-bg-2" fill-rule="nonzero">
            <g id="mastadon-white-bg">
                <path d="M17.4215,0 L3.30686,0 C1.48053,0 0,1.5713608 0,3.5097308 L0,18.4902508 C0,20.4286508 1.48053,21.9999508 3.30686,21.9999508 L17.4215,21.9999508 C19.2478,21.9999508 20.7283,20.4286508 20.7283,18.4902508 L20.7283,3.5097308 C20.7283,1.5713608 19.2478,0 17.4215,0 Z" id="Path" fill="#FFFFFF"></path>
                <path d="M13.69004,15.195 C15.70604,14.955 17.46004,13.72 17.68004,12.592 C18.02804,10.814 18.00004,8.253 18.00004,8.253 C18.00004,4.783 15.71404,3.765 15.71404,3.765 C14.56204,3.238 12.58304,3.017 10.52704,3 L10.47704,3 C8.42004,3.017 6.44204,3.238 5.29004,3.765 C5.29004,3.765 3.00504,4.782 3.00504,8.253 L3.00304,8.915 C2.99904,9.555 2.99604,10.265 3.01404,11.006 C3.09704,14.4 3.64004,17.746 6.79404,18.576 C8.24804,18.959 9.49704,19.039 10.50304,18.984 C12.32604,18.884 13.35004,18.337 13.35004,18.337 L13.29004,17.02 C13.29004,17.02 11.98704,17.43 10.52304,17.38 C9.07304,17.33 7.54304,17.224 7.30804,15.452 C7.28566897,15.28762 7.27464289,15.1218948 7.27504,14.956 C7.27504,14.956 8.69904,15.302 10.50304,15.384 C11.60604,15.434 12.64004,15.32 13.69104,15.195 L13.69004,15.195 Z" id="Path" fill="#0C1464"></path>
                <path d="M15.30304,12.725 L13.63004,12.725 L13.63004,8.645 C13.63004,7.786 13.26604,7.35 12.53904,7.35 C11.73504,7.35 11.33204,7.867 11.33204,8.891 L11.33204,11.124 L9.66804,11.124 L9.66804,8.89 C9.66804,7.866 9.26504,7.349 8.46104,7.349 C7.73404,7.349 7.37004,7.785 7.37004,8.645 L7.37004,12.724 L5.69704,12.724 L5.69704,8.522 C5.69704,7.663 5.91704,6.981 6.35704,6.476 C6.81304,5.971 7.40904,5.712 8.15004,5.712 C9.00604,5.712 9.65404,6.04 10.08304,6.695 L10.50004,7.39 L10.91704,6.695 C11.34604,6.04 11.99404,5.712 12.85104,5.712 C13.59104,5.712 14.18704,5.971 14.64204,6.476 C15.08404,6.981 15.30304,7.663 15.30304,8.522 L15.30304,12.725 L15.30304,12.725 Z" id="Path" fill="#FFFFFF"></path>
            </g>
        </g>
    </g>
</svg>