<svg width="20" height="20" viewBox="0 0 20 20" fill="none" xmlns="http://www.w3.org/2000/svg">
<path d="M4.76799 0L1.93694 2.84932C-0.638403 5.42466 -0.638403 9.58904 1.93694 12.1644L7.83648 18.0639C9.11502 19.3425 10.8137 20 12.494 20C14.1744 20 15.873 19.3607 17.1516 18.0639L20.0009 15.2146L14.9415 10.1553L12.5488 12.5479L7.45292 7.45205L9.84562 5.05936L4.76799 0ZM4.76799 3.41553L6.41182 5.05936L5.73603 5.73516C4.78625 6.68493 4.78625 8.21918 5.73603 9.15068L10.8319 14.2466C11.3068 14.7215 11.9278 14.9589 12.5488 14.9589C13.1698 14.9589 13.7908 14.7215 14.2657 14.2466L14.9415 13.5708L16.5853 15.2146L15.4529 16.347C14.6675 17.1324 13.6082 17.5708 12.494 17.5708C11.3799 17.5708 10.3388 17.1324 9.53511 16.347L3.63557 10.4475C2.01 8.82192 2.01 6.17352 3.63557 4.54795L4.76799 3.41553Z" fill="#1C3E57"/>
</svg>
