<svg width="22" height="22" viewBox="0 0 22 22" fill="none" xmlns="http://www.w3.org/2000/svg">
<path d="M0 19.9301C0 21.0538 0.916667 22 2.06989 22H19.9301C21.0538 22 22 21.0833 22 19.9301V2.06989C22 0.946237 21.0833 0 19.9301 0H2.06989C0.946237 0 0 0.916667 0 2.06989V19.9301Z" fill="#1DA1F2"/>
<path d="M16.6774 7.48117C16.2634 7.65859 15.8199 7.77687 15.3467 7.83601C15.8199 7.54031 16.2043 7.09676 16.3817 6.53493C15.9381 6.80106 15.4354 7.00805 14.9032 7.09676C14.4892 6.65321 13.8682 6.35751 13.2177 6.35751C11.9462 6.35751 10.8817 7.39246 10.8817 8.69354C10.8817 8.87095 10.9112 9.04837 10.9408 9.22579C9.01878 9.13708 7.30372 8.19085 6.1505 6.80106C5.94351 7.1559 5.82523 7.54031 5.82523 7.98386C5.82523 8.78224 6.23921 9.49192 6.86017 9.9059C6.47576 9.9059 6.12093 9.78762 5.79566 9.6102V9.63977C5.79566 10.7634 6.59404 11.7097 7.65856 11.9167C7.45157 11.9758 7.24458 12.0054 7.03759 12.0054C6.88974 12.0054 6.74189 12.0054 6.59404 11.9758C6.88974 12.8925 7.74727 13.5726 8.75265 13.6021C7.95426 14.2231 6.94888 14.6075 5.8548 14.6075C5.67738 14.6075 5.47039 14.6075 5.29297 14.5779C6.32792 15.2285 7.54028 15.6129 8.87093 15.6129C13.1586 15.6129 15.4946 12.0645 15.4946 8.98923C15.4946 8.90052 15.4946 8.78225 15.4946 8.69354C15.9677 8.36827 16.3521 7.95429 16.6774 7.48117Z" fill="white"/>
</svg>
