<svg width="21" height="23" viewBox="0 0 21 23" fill="none" xmlns="http://www.w3.org/2000/svg">
<path d="M17.4215 0.0229492H3.30686C1.48053 0.0229492 0 1.59431 0 3.53268V18.5132C0 20.4516 1.48053 22.0229 3.30686 22.0229H17.4215C19.2478 22.0229 20.7283 20.4516 20.7283 18.5132V3.53268C20.7283 1.59431 19.2478 0.0229492 17.4215 0.0229492Z" fill="white"/>
<path fill-rule="evenodd" clip-rule="evenodd" d="M10.4715 9.07665C9.96154 6.22398 13.1933 4.52704 15.0985 6.58331C15.0985 6.58331 15.9488 6.33056 16.6973 5.82505C16.4782 6.48048 16.0591 7.0395 15.5066 7.41345C15.5066 7.41345 16.5274 7.26678 16.9696 6.98029C16.9696 6.98029 16.5274 7.95514 15.7107 8.31643C16.1529 14.8539 9.51887 18.8256 4.14563 15.576C4.14563 15.576 6.79932 15.7202 7.92279 14.3484C7.92279 14.3484 6.28986 14.495 5.47316 12.3987C5.47316 12.3987 6.0858 12.6514 6.69798 12.3263C6.69798 12.3263 4.79281 12.0012 4.62515 9.58217C4.62515 9.58217 5.23732 10.0877 5.91813 9.90728C5.91813 9.90728 3.80891 8.57114 4.99687 6.15211C4.99687 6.15211 7.24244 9.18323 10.4742 9.07665H10.4715Z" fill="#0C1464"/>
</svg>
